<svg xmlns="http://www.w3.org/2000/svg"><defs><font id="MullerRegular" horiz-adv-x="587"><font-face font-family="Muller Regular" font-weight="400" ascent="780" descent="-220" x-height="480" cap-height="700" bbox="-161 -241 1251 964" underline-thickness="50" underline-position="-125" stemh="75" stemv="80" unicode-range="U+0020-25CA"/><glyph glyph-name="f_f" unicode="ff" horiz-adv-x="691" d="M711 626c-27 13-65 22-101 22-58 0-109-15-109-103v-65h180v-74H501V0h-80v406H191V0h-80v406H21v74h90v53c0 109 80 169 189 169 59 0 102-13 152-41 33 45 86 61 139 61 44 0 87-9 120-22v-74zM191 480h230v68c0 18 2 34 4 49-36 21-67 31-121 31-65 0-113-29-113-95v-53z"/><glyph glyph-name="f_f_i" unicode="ffi" horiz-adv-x="874" d="M191 0h-80v406H21v74h90v53c0 109 80 169 189 169 61 0 104-14 157-43 34 42 88 63 153 63 53 0 97-12 145-35v-80c-47 27-90 41-141 41-65 0-113-29-113-105v-63h297V0h-80v406H501V0h-80v406H191V0zm0 533v-53h230v63c0 19 2 37 6 53-37 22-69 32-123 32-65 0-113-29-113-95z"/><glyph glyph-name="f_f_l" unicode="ffl" horiz-adv-x="884" d="M610 722c48 0 88-10 131-29l67 17V0h-80v626c-37 16-73 22-114 22-65 0-113-29-113-105v-63h150v-74H501V0h-80v406H191V0h-80v406H21v74h90v53c0 109 80 169 189 169 61 0 104-14 157-43 34 42 88 63 153 63zM421 480v63c0 19 2 37 6 53-37 22-69 32-123 32-65 0-113-29-113-95v-53h230z"/><glyph glyph-name=".notdef" horiz-adv-x="249"/><glyph glyph-name="Aacute" unicode="Á" horiz-adv-x="717" d="M98 0H7l305 700h93L709 0h-90l-72 169H170zm249 587L203 247h311L369 587c-4 9-7 17-11 27-4-10-7-18-11-27zm31 183h-87l91 147h100z"/><glyph glyph-name="Abreve" unicode="Ă" horiz-adv-x="717" d="M98 0H7l305 700h93L709 0h-90l-72 169H170zm249 587L203 247h311L369 587c-4 9-7 17-11 27-4-10-7-18-11-27zm150 223c-45-32-92-42-140-42s-95 10-140 42v78c50-33 91-44 140-44s90 11 140 44v-78z"/><glyph glyph-name="Acircumflex" unicode="Â" horiz-adv-x="717" d="M98 0H7l305 700h93L709 0h-90l-72 169H170zm249 587L203 247h311L369 587c-4 9-7 17-11 27-4-10-7-18-11-27zm-23 330h72l132-146h-91l-77 86-77-86h-91z"/><glyph glyph-name="Adieresis" unicode="Ä" horiz-adv-x="717" d="M98 0H7l305 700h93L709 0h-90l-72 169H170zm249 587L203 247h311L369 587c-4 9-7 17-11 27-4-10-7-18-11-27zm165 250c0-30-25-55-55-55s-55 25-55 55c0 29 25 55 55 55s55-26 55-55zm-202 0c0-30-25-55-55-55s-55 25-55 55c0 29 25 55 55 55s55-26 55-55z"/><glyph glyph-name="Agrave" unicode="À" horiz-adv-x="717" d="M98 0H7l305 700h93L709 0h-90l-72 169H170zm249 587L203 247h311L369 587c-4 9-7 17-11 27-4-10-7-18-11-27zm76 183h-87L232 917h100z"/><glyph glyph-name="Amacron" unicode="Ā" horiz-adv-x="717" d="M98 0H7l305 700h93L709 0h-90l-72 169H170zm249 587L203 247h311L369 587c-4 9-7 17-11 27-4-10-7-18-11-27zM207 857h300v-73H207v73z"/><glyph glyph-name="Aogonek" unicode="Ą" horiz-adv-x="717" d="M619-126c-1-24 14-41 43-41 19 0 42 8 59 21v-64c-22-15-50-22-79-22-66 0-99 39-99 89 0 43 25 93 76 143l-72 169H170L98 0H7l305 700h93L709 0c-56-38-91-90-90-126zM347 587L203 247h311L369 587c-4 9-7 17-11 27-4-10-7-18-11-27z"/><glyph glyph-name="Aring" unicode="Å" horiz-adv-x="717" d="M98 0H7l305 700h93L709 0h-90l-72 169H170zm249 587L203 247h311L369 587c-4 9-7 17-11 27-4-10-7-18-11-27zm124 268c0-69-55-111-115-111-61 0-116 42-116 111 0 67 55 109 116 109 60 0 115-42 115-109zm-170-1c0-35 26-55 55-55s55 20 55 55c0 34-26 55-55 55s-55-21-55-55z"/><glyph glyph-name="Atilde" unicode="Ã" horiz-adv-x="717" d="M98 0H7l305 700h93L709 0h-90l-72 169H170zm249 587L203 247h311L369 587c-4 9-7 17-11 27-4-10-7-18-11-27zm175 282c10-72-34-106-82-106-61 0-118 42-148 42-21 0-32-15-29-37h-70c-11 72 33 107 80 107 60 0 118-42 149-42 23 0 32 14 30 36h70z"/><glyph glyph-name="AE" unicode="Æ" horiz-adv-x="996" d="M582 313V80h364V0H498v171H195L77 0h-93l480 700h476v-80H582V393h328v-80H582zm-338-66h254v366z"/><glyph glyph-name="B" unicode="B" horiz-adv-x="691" d="M92 700h287c143 0 238-59 238-177 0-89-57-139-112-155 58-16 140-62 140-176C645 33 489 0 387 0H92v700zm468-499c0 109-100 121-167 121H176V80h194c88 0 190 6 190 121zm-28 310c0 83-61 109-160 109H176V402h219c73 0 137 29 137 109z"/><glyph glyph-name="C" unicode="C" horiz-adv-x="653" d="M45 345c1 243 186 367 368 367 70 0 138-16 197-47v-84c-51 34-117 51-183 51-145 0-296-87-297-287-1-187 155-277 300-277 72 0 137 17 185 51V35C557 5 487-12 412-12 236-12 44 112 45 345z"/><glyph glyph-name="Cacute" unicode="Ć" horiz-adv-x="653" d="M45 345c1 243 186 367 368 367 70 0 138-16 197-47v-84c-51 34-117 51-183 51-145 0-296-87-297-287-1-187 155-277 300-277 72 0 137 17 185 51V35C557 5 487-12 412-12 236-12 44 112 45 345zm373 425h-87l91 147h100z"/><glyph glyph-name="Ccaron" unicode="Č" horiz-adv-x="653" d="M45 345c1 243 186 367 368 367 70 0 138-16 197-47v-84c-51 34-117 51-183 51-145 0-296-87-297-287-1-187 155-277 300-277 72 0 137 17 185 51V35C557 5 487-12 412-12 236-12 44 112 45 345zm523 562L436 761h-72L232 907h91l77-86 77 86h91z"/><glyph glyph-name="Ccedilla" unicode="Ç" horiz-adv-x="653" d="M615 119V35C566 10 509-6 447-11l-12-47c64 3 104-26 105-78 1-65-54-96-133-96-40 0-70 7-98 19v68c23-13 54-22 89-22 49 0 73 13 73 34 0 30-64 35-115 25l22 98C212 5 44 127 45 345c1 243 186 367 368 367 70 0 138-16 197-47v-84c-51 34-117 51-183 51-145 0-296-87-297-287-1-187 155-277 300-277 72 0 137 17 185 51z"/><glyph glyph-name="Cdotaccent" unicode="Ċ" horiz-adv-x="653" d="M45 345c1 243 186 367 368 367 70 0 138-16 197-47v-84c-51 34-117 51-183 51-145 0-296-87-297-287-1-187 155-277 300-277 72 0 137 17 185 51V35C557 5 487-12 412-12 236-12 44 112 45 345zm288 482c0 38 28 58 60 58 33 0 60-20 60-58 0-39-27-59-60-59-32 0-60 20-60 59z"/><glyph glyph-name="D" unicode="D" horiz-adv-x="738" d="M92 700h230c247 0 370-148 370-350S569 0 322 0H92v700zm515-350c0 168-96 270-285 270H176V80h146c189 0 285 102 285 270z"/><glyph glyph-name="Eth" unicode="Ð" horiz-adv-x="743" d="M97 700h230c247 0 370-148 370-350S574 0 327 0H97v311H15v76h82v313zm84-620h146c189 0 285 102 285 270s-96 270-285 270H181V387h211v-76H181V80z"/><glyph glyph-name="Dcaron" unicode="Ď" horiz-adv-x="738" d="M92 700h230c247 0 370-148 370-350S569 0 322 0H92v700zm515-350c0 168-96 270-285 270H176V80h146c189 0 285 102 285 270zm-99 557L376 761h-72L172 907h91l77-86 77 86h91z"/><glyph glyph-name="Dcroat" unicode="Đ" horiz-adv-x="743" d="M97 700h230c247 0 370-148 370-350S574 0 327 0H97v311H15v76h82v313zm84-620h146c189 0 285 102 285 270s-96 270-285 270H181V387h211v-76H181V80z"/><glyph glyph-name="E" unicode="E" horiz-adv-x="620" d="M92 700h472v-80H176V393h358v-80H176V80h394V0H92v700z"/><glyph glyph-name="Eacute" unicode="É" horiz-adv-x="620" d="M92 700h472v-80H176V393h358v-80H176V80h394V0H92v700zm263 70h-87l91 147h100z"/><glyph glyph-name="Ecaron" unicode="Ě" horiz-adv-x="620" d="M92 700h472v-80H176V393h358v-80H176V80h394V0H92v700zm413 207L373 761h-72L169 907h91l77-86 77 86h91z"/><glyph glyph-name="Ecircumflex" unicode="Ê" horiz-adv-x="620" d="M92 700h472v-80H176V393h358v-80H176V80h394V0H92v700zm209 217h72l132-146h-91l-77 86-77-86h-91z"/><glyph glyph-name="Edieresis" unicode="Ë" horiz-adv-x="620" d="M92 700h472v-80H176V393h358v-80H176V80h394V0H92v700zm397 137c0-30-25-55-55-55s-55 25-55 55c0 29 25 55 55 55s55-26 55-55zm-202 0c0-30-25-55-55-55s-55 25-55 55c0 29 25 55 55 55s55-26 55-55z"/><glyph glyph-name="Edotaccent" unicode="Ė" horiz-adv-x="620" d="M92 700h472v-80H176V393h358v-80H176V80h394V0H92v700zm178 127c0 38 28 58 60 58 33 0 60-20 60-58 0-39-27-59-60-59-32 0-60 20-60 59z"/><glyph glyph-name="Egrave" unicode="È" horiz-adv-x="620" d="M92 700h472v-80H176V393h358v-80H176V80h394V0H92v700zm308 70h-87L209 917h100z"/><glyph glyph-name="Emacron" unicode="Ē" horiz-adv-x="620" d="M92 700h472v-80H176V393h358v-80H176V80h394V0H92v700zm92 157h300v-73H184v73z"/><glyph glyph-name="Eogonek" unicode="Ę" horiz-adv-x="620" d="M570 80V0c-56-38-91-91-90-127-1-24 14-40 43-41 15 1 32 5 47 13v-63c-20-10-43-15-67-15-66-1-99 39-99 89 0 46 28 101 83 144H92v700h472v-80H176V393h358v-80H176V80h394z"/><glyph glyph-name="F" unicode="F" horiz-adv-x="604" d="M92 700h474v-80H176V379h361v-80H176V0H92v700z"/><glyph glyph-name="G" unicode="G" horiz-adv-x="705" d="M46 350c0 241 186 362 372 362 74 0 148-16 210-47v-84c-54 34-125 51-198 51-147 0-299-82-299-282 0-211 154-282 301-282 47 0 94 9 129 26v278h84V35C580 5 502-12 426-12 234-12 46 86 46 350z"/><glyph glyph-name="Gbreve" unicode="Ğ" horiz-adv-x="705" d="M46 350c0 241 186 362 372 362 74 0 148-16 210-47v-84c-54 34-125 51-198 51-147 0-299-82-299-282 0-211 154-282 301-282 47 0 94 9 129 26v278h84V35C580 5 502-12 426-12 234-12 46 86 46 350zm496 460c-45-32-92-42-140-42s-95 10-140 42v78c50-33 91-44 140-44s90 11 140 44v-78z"/><glyph glyph-name="Gcommaaccent" unicode="Ģ" horiz-adv-x="705" d="M46 350c0 241 186 362 372 362 74 0 148-16 210-47v-84c-54 34-125 51-198 51-147 0-299-82-299-282 0-211 154-282 301-282 47 0 94 9 129 26v278h84V35C580 5 502-12 426-12 234-12 46 86 46 350zm378-591h-70l25 190h80z"/><glyph glyph-name="Gdotaccent" unicode="Ġ" horiz-adv-x="705" d="M46 350c0 241 186 362 372 362 74 0 148-16 210-47v-84c-54 34-125 51-198 51-147 0-299-82-299-282 0-211 154-282 301-282 47 0 94 9 129 26v278h84V35C580 5 502-12 426-12 234-12 46 86 46 350zm292 477c0 38 28 58 60 58 33 0 60-20 60-58 0-39-27-59-60-59-32 0-60 20-60 59z"/><glyph glyph-name="H" unicode="H" horiz-adv-x="767" d="M591 700h84V0h-84v311H176V0H92v700h84V391h415v309z"/><glyph glyph-name="Hbar" unicode="Ħ" horiz-adv-x="773" d="M179 0H95v502H21v70h74v128h84V572h415v128h84V572h74v-70h-74V0h-84v311H179V0zm0 502V391h415v111H179z"/><glyph glyph-name="I" unicode="I" horiz-adv-x="268" d="M92 700h84V0H92v700z"/><glyph glyph-name="IJ" unicode="Ĳ" horiz-adv-x="781" d="M92 700h84V0H92v700zm313 0h290V198C695 51 593-10 465-10c-70 0-135 15-180 43v84c44-31 103-47 165-47 92 0 161 30 161 131v419H405v80z"/><glyph glyph-name="Iacute" unicode="Í" horiz-adv-x="268" d="M92 700h84V0H92v700zm64 70H69l91 147h100z"/><glyph glyph-name="Icircumflex" unicode="Î" horiz-adv-x="268" d="M92 700h84V0H92v700zm10 217h72l132-146h-91l-77 86-77-86h-91z"/><glyph glyph-name="Idieresis" unicode="Ï" horiz-adv-x="268" d="M92 700h84V0H92v700zm198 137c0-30-25-55-55-55s-55 25-55 55c0 29 25 55 55 55s55-26 55-55zm-202 0c0-30-25-55-55-55s-55 25-55 55c0 29 25 55 55 55s55-26 55-55z"/><glyph glyph-name="Idotaccent" unicode="İ" horiz-adv-x="268" d="M92 700h84V0H92v700zM71 827c0 38 28 58 60 58 33 0 60-20 60-58 0-39-27-59-60-59-32 0-60 20-60 59z"/><glyph glyph-name="Igrave" unicode="Ì" horiz-adv-x="268" d="M92 700h84V0H92v700zm109 70h-87L10 917h100z"/><glyph glyph-name="Imacron" unicode="Ī" horiz-adv-x="268" d="M92 700h84V0H92v700zM-15 857h300v-73H-15v73z"/><glyph glyph-name="Iogonek" unicode="Į" horiz-adv-x="268" d="M100-127c-1-24 14-40 43-41 19 1 42 8 59 21v-64c-22-15-50-22-79-22-66-1-99 39-99 89C24-98 47-50 92 5v695h84V0c-59-59-77-97-76-127z"/><glyph glyph-name="J" unicode="J" horiz-adv-x="513" d="M137 700h290V198C427 51 325-10 197-10 127-10 62 5 17 33v84c44-31 103-47 165-47 92 0 161 30 161 131v419H137v80z"/><glyph glyph-name="K" unicode="K" horiz-adv-x="665" d="M176 0H92v700h84V397h159l211 303h96L404 359 663 0h-96L338 317H176V0z"/><glyph glyph-name="Kcommaaccent" unicode="Ķ" horiz-adv-x="665" d="M176 0H92v700h84V397h159l211 303h96L404 359 663 0h-96L338 317H176V0zm189-231h-70l25 190h80z"/><glyph glyph-name="L" unicode="L" horiz-adv-x="579" d="M92 700h84V80h388V0H92v700z"/><glyph glyph-name="Lacute" unicode="Ĺ" horiz-adv-x="579" d="M92 700h84V80h388V0H92v700zm69 70H74l91 147h100z"/><glyph glyph-name="Lcaron" unicode="Ľ" horiz-adv-x="580" d="M372 700h80l-28-184h-70zm-280 0h84V80h388V0H92v700z"/><glyph glyph-name="Lcommaaccent" unicode="Ļ" horiz-adv-x="579" d="M92 700h84V80h388V0H92v700zm245-931h-70l25 190h80z"/><glyph glyph-name="Ldot" unicode="Ŀ" horiz-adv-x="584" d="M416 350c0-34-24-51-52-51s-53 17-53 51 25 51 53 51 52-17 52-51zM92 700h84V80h388V0H92v700z"/><glyph glyph-name="Lslash" unicode="Ł" horiz-adv-x="586" d="M570 0H98v270l-80-33v70l80 33v360h84V372l210 88v-70l-210-88V80h388V0z"/><glyph glyph-name="M" unicode="M" horiz-adv-x="906" d="M742 700h72V0h-84v541L479 165h-52L176 541V0H92v700h72l289-432z"/><glyph glyph-name="N" unicode="N" horiz-adv-x="767" d="M176 0H92v700h78l421-559v559h84V0h-78L176 560V0z"/><glyph glyph-name="Nacute" unicode="Ń" horiz-adv-x="767" d="M176 0H92v700h78l421-559v559h84V0h-78L176 560V0zm229 770h-87l91 147h100z"/><glyph glyph-name="Ncaron" unicode="Ň" horiz-adv-x="767" d="M176 0H92v700h78l421-559v559h84V0h-78L176 560V0zm379 907L423 761h-72L219 907h91l77-86 77 86h91z"/><glyph glyph-name="Ncommaaccent" unicode="Ņ" horiz-adv-x="767" d="M176 0H92v700h78l421-559v559h84V0h-78L176 560V0zm226-231h-70l25 190h80z"/><glyph glyph-name="Eng" unicode="Ŋ" horiz-adv-x="767" d="M675-81c0-104-63-149-143-149-24 0-48 4-72 11v77c15-5 35-8 53-8 47 0 78 20 78 79V8L176 560V0H92v700h78l421-559v559h84V-81z"/><glyph glyph-name="Ntilde" unicode="Ñ" horiz-adv-x="767" d="M176 0H92v700h78l421-559v559h84V0h-78L176 560V0zm373 869c10-72-34-106-82-106-61 0-118 42-148 42-21 0-32-15-29-37h-70c-11 72 33 107 80 107 60 0 118-42 149-42 23 0 32 14 30 36h70z"/><glyph glyph-name="O" unicode="O" horiz-adv-x="822" d="M45 350c0 181 121 362 366 362s366-181 366-362S656-12 411-12 45 169 45 350zm647 0c0 144-91 282-281 282S130 494 130 350 221 68 411 68s281 138 281 282z"/><glyph glyph-name="Oacute" unicode="Ó" horiz-adv-x="822" d="M45 350c0 181 121 362 366 362s366-181 366-362S656-12 411-12 45 169 45 350zm647 0c0 144-91 282-281 282S130 494 130 350 221 68 411 68s281 138 281 282zM432 770h-87l91 147h100z"/><glyph glyph-name="Ocircumflex" unicode="Ô" horiz-adv-x="822" d="M45 350c0 181 121 362 366 362s366-181 366-362S656-12 411-12 45 169 45 350zm647 0c0 144-91 282-281 282S130 494 130 350 221 68 411 68s281 138 281 282zM378 917h72l132-146h-91l-77 86-77-86h-91z"/><glyph glyph-name="Odieresis" unicode="Ö" horiz-adv-x="822" d="M45 350c0 181 121 362 366 362s366-181 366-362S656-12 411-12 45 169 45 350zm647 0c0 144-91 282-281 282S130 494 130 350 221 68 411 68s281 138 281 282zM566 837c0-30-25-55-55-55s-55 25-55 55c0 29 25 55 55 55s55-26 55-55zm-202 0c0-30-25-55-55-55s-55 25-55 55c0 29 25 55 55 55s55-26 55-55z"/><glyph glyph-name="Ograve" unicode="Ò" horiz-adv-x="822" d="M45 350c0 181 121 362 366 362s366-181 366-362S656-12 411-12 45 169 45 350zm647 0c0 144-91 282-281 282S130 494 130 350 221 68 411 68s281 138 281 282zM477 770h-87L286 917h100z"/><glyph glyph-name="Ohungarumlaut" unicode="Ő" horiz-adv-x="822" d="M45 350c0 181 121 362 366 362s366-181 366-362S656-12 411-12 45 169 45 350zm647 0c0 144-91 282-281 282S130 494 130 350 221 68 411 68s281 138 281 282zM528 780h-85l69 147h90zm-155 0h-85l69 147h90z"/><glyph glyph-name="Omacron" unicode="Ō" horiz-adv-x="822" d="M45 350c0 181 121 362 366 362s366-181 366-362S656-12 411-12 45 169 45 350zm647 0c0 144-91 282-281 282S130 494 130 350 221 68 411 68s281 138 281 282zM261 857h300v-73H261v73z"/><glyph glyph-name="Oslash" unicode="Ø" horiz-adv-x="822" d="M740 748l-86-118c82-70 123-175 123-280 0-181-121-362-366-362-75 0-139 17-190 46l-60-82H81l86 119C86 140 45 245 45 350c0 181 121 362 366 362 75 0 138-17 190-45l59 81h80zM411 632c-190 0-281-138-281-282 0-80 28-159 86-212l336 462c-38 20-86 32-141 32zM269 100c39-20 86-32 142-32 190 0 281 138 281 282 0 80-28 159-87 213z"/><glyph glyph-name="Otilde" unicode="Õ" horiz-adv-x="822" d="M45 350c0 181 121 362 366 362s366-181 366-362S656-12 411-12 45 169 45 350zm647 0c0 144-91 282-281 282S130 494 130 350 221 68 411 68s281 138 281 282zM576 869c10-72-34-106-82-106-61 0-118 42-148 42-21 0-32-15-29-37h-70c-11 72 33 107 80 107 60 0 118-42 149-42 23 0 32 14 30 36h70z"/><glyph glyph-name="OE" unicode="Œ" horiz-adv-x="1031" d="M533 0c-32-8-67-12-122-12C166-12 45 169 45 350s121 362 366 362c55 0 90-4 122-12h442v-80H617V393h328v-80H617V80h364V0H533zM132 350c0-157 104-282 284-282 51 0 85 6 117 15v534c-32 9-66 15-117 15-180 0-284-125-284-282z"/><glyph glyph-name="P" unicode="P" horiz-adv-x="661" d="M92 700h239c162 0 297-51 297-226S493 248 331 248H176V0H92v700zm451-226c0 119-93 146-208 146H176V328h159c114 0 208 28 208 146z"/><glyph glyph-name="Thorn" unicode="Þ" horiz-adv-x="658" d="M176 576h155c162 0 297-51 297-226S493 124 331 124H176V0H92v700h84V576zm0-372h159c114 0 208 28 208 146 0 119-93 146-208 146H176V204z"/><glyph glyph-name="Q" unicode="Q" horiz-adv-x="822" d="M777-8l-54-54L618 43C563 9 494-12 411-12 166-12 45 169 45 350s121 362 366 362 366-181 366-362c0-95-33-190-100-259zM130 350c0-144 91-282 281-282 58 0 107 13 147 35L436 225l54 53 128-128c50 53 74 126 74 200 0 144-91 282-281 282S130 494 130 350z"/><glyph glyph-name="R" unicode="R" horiz-adv-x="695" d="M176 0H92v700h274c126 0 262-52 262-212 0-129-88-187-187-205L678 0H573L344 276H176V0zm0 620V356h194c84 0 173 28 173 132 0 105-89 132-173 132H176z"/><glyph glyph-name="Racute" unicode="Ŕ" horiz-adv-x="695" d="M176 0H92v700h274c126 0 262-52 262-212 0-129-88-187-187-205L678 0H573L344 276H176V0zm0 620V356h194c84 0 173 28 173 132 0 105-89 132-173 132H176zm180 150h-87l91 147h100z"/><glyph glyph-name="Rcaron" unicode="Ř" horiz-adv-x="695" d="M176 0H92v700h274c126 0 262-52 262-212 0-129-88-187-187-205L678 0H573L344 276H176V0zm0 620V356h194c84 0 173 28 173 132 0 105-89 132-173 132H176zm330 287L374 761h-72L170 907h91l77-86 77 86h91z"/><glyph glyph-name="Rcommaaccent" unicode="Ŗ" horiz-adv-x="695" d="M176 0H92v700h274c126 0 262-52 262-212 0-129-88-187-187-205L678 0H573L344 276H176V0zm0 620V356h194c84 0 173 28 173 132 0 105-89 132-173 132H176zm187-851h-70l25 190h80z"/><glyph glyph-name="S" unicode="S" horiz-adv-x="585" d="M50 527c0 125 113 185 240 185 77 0 156-19 212-51v-84c-56 36-134 56-206 55-92 0-161-27-161-102 0-177 417-101 417-352C552 39 427-13 293-12c-91 0-172 22-240 60v84c74-45 154-64 234-64 97 0 180 25 180 104 0 188-417 109-417 355z"/><glyph glyph-name="Sacute" unicode="Ś" horiz-adv-x="585" d="M50 527c0 125 113 185 240 185 77 0 156-19 212-51v-84c-56 36-134 56-206 55-92 0-161-27-161-102 0-177 417-101 417-352C552 39 427-13 293-12c-91 0-172 22-240 60v84c74-45 154-64 234-64 97 0 180 25 180 104 0 188-417 109-417 355zm253 243h-87l91 147h100z"/><glyph glyph-name="Scaron" unicode="Š" horiz-adv-x="585" d="M50 527c0 125 113 185 240 185 77 0 156-19 212-51v-84c-56 36-134 56-206 55-92 0-161-27-161-102 0-177 417-101 417-352C552 39 427-13 293-12c-91 0-172 22-240 60v84c74-45 154-64 234-64 97 0 180 25 180 104 0 188-417 109-417 355zm403 380L321 761h-72L117 907h91l77-86 77 86h91z"/><glyph glyph-name="Scedilla" unicode="Ş" horiz-adv-x="585" d="M135 530c0-177 417-101 417-352C552 55 453 0 337-10l-12-48c64 3 104-26 105-78 1-65-54-96-133-96-40 0-70 7-98 19v68c23-13 54-22 89-22 49 0 73 13 73 34 0 30-64 35-115 25l21 97C187-8 115 14 53 48v84c74-45 154-64 234-64 97 0 180 25 180 104 0 188-417 109-417 355 0 125 113 185 240 185 77 0 156-19 212-51v-84c-56 36-134 56-206 55-92 0-161-27-161-102z"/><glyph glyph-name="Scommaaccent" unicode="Ș" horiz-adv-x="585" d="M50 527c0 125 113 185 240 185 77 0 156-19 212-51v-84c-56 36-134 56-206 55-92 0-161-27-161-102 0-177 417-101 417-352C552 39 427-13 293-12c-91 0-172 22-240 60v84c74-45 154-64 234-64 97 0 180 25 180 104 0 188-417 109-417 355zm254-758h-70l25 190h80z"/><glyph glyph-name="T" unicode="T" horiz-adv-x="604" d="M14 700h576v-80H344V0h-84v620H14v80z"/><glyph glyph-name="Tbar" unicode="Ŧ" horiz-adv-x="614" d="M349 0h-84v313H146v70h119v237H19v80h576v-80H349V383h119v-70H349V0z"/><glyph glyph-name="Tcaron" unicode="Ť" horiz-adv-x="604" d="M14 700h576v-80H344V0h-84v620H14v80zm462 207L344 761h-72L140 907h91l77-86 77 86h91z"/><glyph glyph-name="Tcommaaccent" unicode="Ţ" horiz-adv-x="604" d="M14 700h576v-80H344V0h-84v620H14v80zm296-931h-70l25 190h80z"/><glyph glyph-name="uni021A" unicode="Ț" horiz-adv-x="604" d="M14 700h576v-80H344V0h-84v620H14v80zm296-931h-70l25 190h80z"/><glyph glyph-name="U" unicode="U" horiz-adv-x="753" d="M585 700h84V256C669 56 532-12 377-12 221-12 84 56 84 256v444h84V260c0-142 88-192 209-192 120 0 208 50 208 192v440z"/><glyph glyph-name="Uacute" unicode="Ú" horiz-adv-x="753" d="M585 700h84V256C669 56 532-12 377-12 221-12 84 56 84 256v444h84V260c0-142 88-192 209-192 120 0 208 50 208 192v440zm-191 70h-87l91 147h100z"/><glyph glyph-name="Ucircumflex" unicode="Û" horiz-adv-x="753" d="M585 700h84V256C669 56 532-12 377-12 221-12 84 56 84 256v444h84V260c0-142 88-192 209-192 120 0 208 50 208 192v440zM340 917h72l132-146h-91l-77 86-77-86h-91z"/><glyph glyph-name="Udieresis" unicode="Ü" horiz-adv-x="753" d="M585 700h84V256C669 56 532-12 377-12 221-12 84 56 84 256v444h84V260c0-142 88-192 209-192 120 0 208 50 208 192v440zm-57 137c0-30-25-55-55-55s-55 25-55 55c0 29 25 55 55 55s55-26 55-55zm-202 0c0-30-25-55-55-55s-55 25-55 55c0 29 25 55 55 55s55-26 55-55z"/><glyph glyph-name="Ugrave" unicode="Ù" horiz-adv-x="753" d="M585 700h84V256C669 56 532-12 377-12 221-12 84 56 84 256v444h84V260c0-142 88-192 209-192 120 0 208 50 208 192v440zm-146 70h-87L248 917h100z"/><glyph glyph-name="Uhungarumlaut" unicode="Ű" horiz-adv-x="753" d="M585 700h84V256C669 56 532-12 377-12 221-12 84 56 84 256v444h84V260c0-142 88-192 209-192 120 0 208 50 208 192v440zm-95 80h-85l69 147h90zm-155 0h-85l69 147h90z"/><glyph glyph-name="Umacron" unicode="Ū" horiz-adv-x="753" d="M585 700h84V256C669 56 532-12 377-12 221-12 84 56 84 256v444h84V260c0-142 88-192 209-192 120 0 208 50 208 192v440zM223 857h300v-73H223v73z"/><glyph glyph-name="Uogonek" unicode="Ų" horiz-adv-x="753" d="M547-211c-22-15-50-22-79-22-66-1-99 39-99 89 0 43 24 94 64 135-18-2-37-3-56-3C221-12 84 56 84 256v444h84V260c0-142 88-192 209-192 120 0 208 50 208 192v440h84V256c0-107-39-176-99-217-98-67-126-130-125-166-1-24 14-40 43-41 19 1 42 8 59 21v-64z"/><glyph glyph-name="Uring" unicode="Ů" horiz-adv-x="753" d="M585 700h84V256C669 56 532-12 377-12 221-12 84 56 84 256v444h84V260c0-142 88-192 209-192 120 0 208 50 208 192v440zm-98 155c0-69-55-111-115-111-61 0-116 42-116 111 0 67 55 109 116 109 60 0 115-42 115-109zm-170-1c0-35 26-55 55-55s55 20 55 55c0 34-26 55-55 55s-55-21-55-55z"/><glyph glyph-name="V" unicode="V" horiz-adv-x="689" d="M388 0h-87L11 700h90L344 94l244 606h90z"/><glyph glyph-name="W" unicode="W" horiz-adv-x="999" d="M898 700h92L770 0h-94L499 560 322 0h-93L9 700h92l175-598 186 598h75l186-598z"/><glyph glyph-name="Wacute" unicode="Ẃ" horiz-adv-x="1013" d="M905 700h92L777 0h-94L506 560 329 0h-93L16 700h92l175-598 186 598h75l186-598zm-378 70h-87l91 147h100z"/><glyph glyph-name="Wcircumflex" unicode="Ŵ" horiz-adv-x="1013" d="M905 700h92L777 0h-94L506 560 329 0h-93L16 700h92l175-598 186 598h75l186-598zM473 917h72l132-146h-91l-77 86-77-86h-91z"/><glyph glyph-name="Wdieresis" unicode="Ẅ" horiz-adv-x="1013" d="M905 700h92L777 0h-94L506 560 329 0h-93L16 700h92l175-598 186 598h75l186-598zM661 837c0-30-25-55-55-55s-55 25-55 55c0 29 25 55 55 55s55-26 55-55zm-202 0c0-30-25-55-55-55s-55 25-55 55c0 29 25 55 55 55s55-26 55-55z"/><glyph glyph-name="Wgrave" unicode="Ẁ" horiz-adv-x="1013" d="M905 700h92L777 0h-94L506 560 329 0h-93L16 700h92l175-598 186 598h75l186-598zm-333 70h-87L381 917h100z"/><glyph glyph-name="X" unicode="X" horiz-adv-x="645" d="M102 0H2l271 360L17 700h100l206-273 205 273h100L373 360 643 0H543L323 293z"/><glyph glyph-name="Y" unicode="Y" horiz-adv-x="656" d="M370 0h-84v265L11 700h93l224-360 224 360h93L370 265V0z"/><glyph glyph-name="Yacute" unicode="Ý" horiz-adv-x="656" d="M370 0h-84v265L11 700h93l224-360 224 360h93L370 265V0zm-20 770h-87l91 147h100z"/><glyph glyph-name="Ycircumflex" unicode="Ŷ" horiz-adv-x="656" d="M370 0h-84v265L11 700h93l224-360 224 360h93L370 265V0zm-74 917h72l132-146h-91l-77 86-77-86h-91z"/><glyph glyph-name="Ydieresis" unicode="Ÿ" horiz-adv-x="656" d="M370 0h-84v265L11 700h93l224-360 224 360h93L370 265V0zm114 837c0-30-25-55-55-55s-55 25-55 55c0 29 25 55 55 55s55-26 55-55zm-202 0c0-30-25-55-55-55s-55 25-55 55c0 29 25 55 55 55s55-26 55-55z"/><glyph glyph-name="Ygrave" unicode="Ỳ" horiz-adv-x="656" d="M370 0h-84v265L11 700h93l224-360 224 360h93L370 265V0zm25 770h-87L204 917h100z"/><glyph glyph-name="Z" unicode="Z" horiz-adv-x="586" d="M554 0H35v76l402 544H45v80h493v-76L135 80h419V0z"/><glyph glyph-name="Zacute" unicode="Ź" horiz-adv-x="586" d="M554 0H35v76l402 544H45v80h493v-76L135 80h419V0zM322 770h-87l91 147h100z"/><glyph glyph-name="Zcaron" unicode="Ž" horiz-adv-x="586" d="M554 0H35v76l402 544H45v80h493v-76L135 80h419V0zm-82 907L340 761h-72L136 907h91l77-86 77 86h91z"/><glyph glyph-name="Zdotaccent" unicode="Ż" horiz-adv-x="586" d="M554 0H35v76l402 544H45v80h493v-76L135 80h419V0zM237 827c0 38 28 58 60 58 33 0 60-20 60-58 0-39-27-59-60-59-32 0-60 20-60 59z"/><glyph glyph-name="a" unicode="a" horiz-adv-x="544" d="M464 100c0-29 16-37 37-37 12 0 25 3 37 7V5c-19-7-40-11-60-11-39 0-74 16-88 58-48-40-109-64-187-64-85 0-169 45-169 146 0 124 114 162 217 162 42 0 93-6 133-15v17c0 72-49 120-137 120-74 0-133-18-175-36v78c38 13 104 32 183 32 128 0 209-70 209-204V100zm-348 38c0-56 51-81 104-81 61 0 122 25 164 70v88c-34 7-83 14-122 14-70 0-146-21-146-91z"/><glyph glyph-name="aacute" unicode="á" horiz-adv-x="544" d="M464 100c0-29 16-37 37-37 12 0 25 3 37 7V5c-19-7-40-11-60-11-39 0-74 16-88 58-48-40-109-64-187-64-85 0-169 45-169 146 0 124 114 162 217 162 42 0 93-6 133-15v17c0 72-49 120-137 120-74 0-133-18-175-36v78c38 13 104 32 183 32 128 0 209-70 209-204V100zm-348 38c0-56 51-81 104-81 61 0 122 25 164 70v88c-34 7-83 14-122 14-70 0-146-21-146-91zm150 412h-87l91 147h100z"/><glyph glyph-name="abreve" unicode="ă" horiz-adv-x="544" d="M464 100c0-29 16-37 37-37 12 0 25 3 37 7V5c-19-7-40-11-60-11-39 0-74 16-88 58-48-40-109-64-187-64-85 0-169 45-169 146 0 124 114 162 217 162 42 0 93-6 133-15v17c0 72-49 120-137 120-74 0-133-18-175-36v78c38 13 104 32 183 32 128 0 209-70 209-204V100zm-348 38c0-56 51-81 104-81 61 0 122 25 164 70v88c-34 7-83 14-122 14-70 0-146-21-146-91zm269 452c-45-32-92-42-140-42s-95 10-140 42v78c50-33 91-44 140-44s90 11 140 44v-78z"/><glyph glyph-name="acircumflex" unicode="â" horiz-adv-x="544" d="M464 100c0-29 16-37 37-37 12 0 25 3 37 7V5c-19-7-40-11-60-11-39 0-74 16-88 58-48-40-109-64-187-64-85 0-169 45-169 146 0 124 114 162 217 162 42 0 93-6 133-15v17c0 72-49 120-137 120-74 0-133-18-175-36v78c38 13 104 32 183 32 128 0 209-70 209-204V100zm-348 38c0-56 51-81 104-81 61 0 122 25 164 70v88c-34 7-83 14-122 14-70 0-146-21-146-91zm96 559h72l132-146h-91l-77 86-77-86H80z"/><glyph glyph-name="adieresis" unicode="ä" horiz-adv-x="544" d="M464 100c0-29 16-37 37-37 12 0 25 3 37 7V5c-19-7-40-11-60-11-39 0-74 16-88 58-48-40-109-64-187-64-85 0-169 45-169 146 0 124 114 162 217 162 42 0 93-6 133-15v17c0 72-49 120-137 120-74 0-133-18-175-36v78c38 13 104 32 183 32 128 0 209-70 209-204V100zm-348 38c0-56 51-81 104-81 61 0 122 25 164 70v88c-34 7-83 14-122 14-70 0-146-21-146-91zm284 479c0-30-25-55-55-55s-55 25-55 55c0 29 25 55 55 55s55-26 55-55zm-202 0c0-30-25-55-55-55s-55 25-55 55c0 29 25 55 55 55s55-26 55-55z"/><glyph glyph-name="agrave" unicode="à" horiz-adv-x="544" d="M464 100c0-29 16-37 37-37 12 0 25 3 37 7V5c-19-7-40-11-60-11-39 0-74 16-88 58-48-40-109-64-187-64-85 0-169 45-169 146 0 124 114 162 217 162 42 0 93-6 133-15v17c0 72-49 120-137 120-74 0-133-18-175-36v78c38 13 104 32 183 32 128 0 209-70 209-204V100zm-348 38c0-56 51-81 104-81 61 0 122 25 164 70v88c-34 7-83 14-122 14-70 0-146-21-146-91zm195 412h-87L120 697h100z"/><glyph glyph-name="amacron" unicode="ā" horiz-adv-x="544" d="M464 100c0-29 16-37 37-37 12 0 25 3 37 7V5c-19-7-40-11-60-11-39 0-74 16-88 58-48-40-109-64-187-64-85 0-169 45-169 146 0 124 114 162 217 162 42 0 93-6 133-15v17c0 72-49 120-137 120-74 0-133-18-175-36v78c38 13 104 32 183 32 128 0 209-70 209-204V100zm-348 38c0-56 51-81 104-81 61 0 122 25 164 70v88c-34 7-83 14-122 14-70 0-146-21-146-91zM95 637h300v-73H95v73z"/><glyph glyph-name="aogonek" unicode="ą" horiz-adv-x="544" d="M538 70V5c-56-38-91-91-90-127-1-24 14-40 43-41 14 1 31 5 46 13v-64c-20-9-43-14-66-14-66-1-99 39-99 89 0 44 25 95 74 137-25 7-46 24-56 54-48-40-109-64-187-64-85 0-169 45-169 146 0 124 114 162 217 162 42 0 93-6 133-15v17c0 72-49 120-137 120-74 0-133-18-175-36v78c38 13 104 32 183 32 128 0 209-70 209-204V100c0-29 16-37 37-37 12 0 25 3 37 7zM220 57c61 0 122 25 164 70v88c-34 7-83 14-122 14-70 0-146-21-146-91 0-56 51-81 104-81z"/><glyph glyph-name="aring" unicode="å" horiz-adv-x="544" d="M464 100c0-29 16-37 37-37 12 0 25 3 37 7V5c-19-7-40-11-60-11-39 0-74 16-88 58-48-40-109-64-187-64-85 0-169 45-169 146 0 124 114 162 217 162 42 0 93-6 133-15v17c0 72-49 120-137 120-74 0-133-18-175-36v78c38 13 104 32 183 32 128 0 209-70 209-204V100zm-348 38c0-56 51-81 104-81 61 0 122 25 164 70v88c-34 7-83 14-122 14-70 0-146-21-146-91zm243 497c0-69-55-111-115-111-61 0-116 42-116 111 0 67 55 109 116 109 60 0 115-42 115-109zm-170-1c0-35 26-55 55-55s55 20 55 55c0 34-26 55-55 55s-55-21-55-55z"/><glyph glyph-name="atilde" unicode="ã" horiz-adv-x="544" d="M464 100c0-29 16-37 37-37 12 0 25 3 37 7V5c-19-7-40-11-60-11-39 0-74 16-88 58-48-40-109-64-187-64-85 0-169 45-169 146 0 124 114 162 217 162 42 0 93-6 133-15v17c0 72-49 120-137 120-74 0-133-18-175-36v78c38 13 104 32 183 32 128 0 209-70 209-204V100zm-348 38c0-56 51-81 104-81 61 0 122 25 164 70v88c-34 7-83 14-122 14-70 0-146-21-146-91zm294 511c10-72-34-106-82-106-61 0-118 42-148 42-21 0-32-15-29-37H81c-11 72 33 107 80 107 60 0 118-42 149-42 23 0 32 14 30 36h70z"/><glyph glyph-name="ae" unicode="æ" horiz-adv-x="911" d="M459 75C386 9 295-12 213-12 118-12 34 33 34 134c0 124 114 162 227 162 52 0 103-6 143-15v17c0 77-49 120-157 120-74 0-133-18-175-36v78c38 13 104 32 183 32 105 0 171-33 201-101 44 67 119 101 192 101 185 0 248-150 218-292H484c10-96 101-138 198-138 55 0 113 16 154 39V27C792 2 727-12 665-12c-79 0-156 29-206 87zm-343 63c0-56 51-81 114-81 65 0 138 17 197 69-12 26-19 55-22 89-38 7-85 14-133 14-80 0-156-21-156-91zm532 280c-84 0-158-49-164-148h311c7 56-25 148-147 148z"/><glyph glyph-name="b" unicode="b" horiz-adv-x="621" d="M74 700h80V408c35 41 94 84 186 84 137 0 240-108 240-252S477-12 340-12c-92 0-151 43-194 92V0H74v700zm426-460c0 110-76 178-169 178-86 0-150-56-177-118V180c27-62 91-118 177-118 93 0 169 68 169 178z"/><glyph glyph-name="c" unicode="c" horiz-adv-x="493" d="M41 238c0 175 135 254 260 254 54 0 107-12 148-39v-78c-36 28-87 43-138 43-93 0-190-52-190-178 0-123 94-178 188-178 52 0 105 15 145 39V21c-45-22-96-33-156-33C172-12 41 67 41 238z"/><glyph glyph-name="cacute" unicode="ć" horiz-adv-x="493" d="M41 238c0 175 135 254 260 254 54 0 107-12 148-39v-78c-36 28-87 43-138 43-93 0-190-52-190-178 0-123 94-178 188-178 52 0 105 15 145 39V21c-45-22-96-33-156-33C172-12 41 67 41 238zm286 312h-87l91 147h100z"/><glyph glyph-name="ccaron" unicode="č" horiz-adv-x="493" d="M41 238c0 175 135 254 260 254 54 0 107-12 148-39v-78c-36 28-87 43-138 43-93 0-190-52-190-178 0-123 94-178 188-178 52 0 105 15 145 39V21c-45-22-96-33-156-33C172-12 41 67 41 238zm436 449L345 541h-72L141 687h91l77-86 77 86h91z"/><glyph glyph-name="ccedilla" unicode="ç" horiz-adv-x="493" d="M454 101V21C416 3 374-8 326-11l-12-47c64 3 104-26 105-78 1-65-54-96-133-96-40 0-70 7-98 19v68c23-13 54-22 89-22 49 0 73 13 73 34 0 30-64 35-115 25l22 99C145 6 41 86 41 238c0 175 135 254 260 254 54 0 107-12 148-39v-78c-36 28-87 43-138 43-93 0-190-52-190-178 0-123 94-178 188-178 52 0 105 15 145 39z"/><glyph glyph-name="cdotaccent" unicode="ċ" horiz-adv-x="493" d="M41 238c0 175 135 254 260 254 54 0 107-12 148-39v-78c-36 28-87 43-138 43-93 0-190-52-190-178 0-123 94-178 188-178 52 0 105 15 145 39V21c-45-22-96-33-156-33C172-12 41 67 41 238zm201 369c0 38 28 58 60 58 33 0 60-20 60-58 0-39-27-59-60-59-32 0-60 20-60 59z"/><glyph glyph-name="d" unicode="d" horiz-adv-x="621" d="M467 700h80V0h-72v80c-43-49-102-92-194-92C144-12 41 96 41 240s103 252 240 252c92 0 151-43 186-84v292zm0-400c-27 62-91 118-177 118-93 0-169-68-169-178S197 62 290 62c86 0 150 56 177 118v120z"/><glyph glyph-name="eth" unicode="ð" horiz-adv-x="592" d="M541 271C541 83 436-12 290-12 149-12 41 80 41 221c0 130 105 223 227 223 92 0 171-43 202-105-1 7-2 14-4 22-22 115-86 188-170 226l-92-92-46 46 70 70c-40 9-83 13-127 13v76c56 0 122-9 185-31l86 86 46-46-69-69c106-60 192-172 192-369zm-420-50c0-94 66-157 169-157 101 0 152 58 165 141-2 96-74 165-174 165-95 0-160-61-160-149z"/><glyph glyph-name="dcaron" unicode="ď" horiz-adv-x="620" d="M622 700h80l-28-184h-70zm-155 0h80V0h-72v80c-43-49-102-92-194-92C144-12 41 96 41 240s103 252 240 252c92 0 151-43 186-84v292zm0-400c-27 62-91 118-177 118-93 0-169-68-169-178S197 62 290 62c86 0 150 56 177 118v120z"/><glyph glyph-name="dcroat" unicode="đ" horiz-adv-x="620" d="M547 632h66v-60h-66V0h-72v80c-43-49-102-92-194-92C144-12 41 96 41 240s103 252 240 252c92 0 151-43 186-84v164H295v60h172v68h80v-68zM290 62c86 0 150 56 177 118v120c-27 62-91 118-177 118-93 0-169-68-169-178S197 62 290 62z"/><glyph glyph-name="e" unicode="e" horiz-adv-x="548" d="M41 240c0 168 125 252 239 252 185 0 253-151 223-287H121C131 104 222 62 319 62c59 0 117 16 158 39V23C433 0 370-12 307-12 165-12 41 69 41 240zm391 35c7 51-25 143-147 143-82 0-158-49-164-143h311z"/><glyph glyph-name="eacute" unicode="é" horiz-adv-x="548" d="M41 240c0 168 125 252 239 252 185 0 253-151 223-287H121C131 104 222 62 319 62c59 0 117 16 158 39V23C433 0 370-12 307-12 165-12 41 69 41 240zm391 35c7 51-25 143-147 143-82 0-158-49-164-143h311zM302 550h-87l91 147h100z"/><glyph glyph-name="ecaron" unicode="ě" horiz-adv-x="548" d="M41 240c0 168 125 252 239 252 185 0 253-151 223-287H121C131 104 222 62 319 62c59 0 117 16 158 39V23C433 0 370-12 307-12 165-12 41 69 41 240zm391 35c7 51-25 143-147 143-82 0-158-49-164-143h311zm20 412L320 541h-72L116 687h91l77-86 77 86h91z"/><glyph glyph-name="ecircumflex" unicode="ê" horiz-adv-x="548" d="M41 240c0 168 125 252 239 252 185 0 253-151 223-287H121C131 104 222 62 319 62c59 0 117 16 158 39V23C433 0 370-12 307-12 165-12 41 69 41 240zm391 35c7 51-25 143-147 143-82 0-158-49-164-143h311zM248 697h72l132-146h-91l-77 86-77-86h-91z"/><glyph glyph-name="edieresis" unicode="ë" horiz-adv-x="548" d="M41 240c0 168 125 252 239 252 185 0 253-151 223-287H121C131 104 222 62 319 62c59 0 117 16 158 39V23C433 0 370-12 307-12 165-12 41 69 41 240zm391 35c7 51-25 143-147 143-82 0-158-49-164-143h311zm4 342c0-30-25-55-55-55s-55 25-55 55c0 29 25 55 55 55s55-26 55-55zm-202 0c0-30-25-55-55-55s-55 25-55 55c0 29 25 55 55 55s55-26 55-55z"/><glyph glyph-name="edotaccent" unicode="ė" horiz-adv-x="548" d="M41 240c0 168 125 252 239 252 185 0 253-151 223-287H121C131 104 222 62 319 62c59 0 117 16 158 39V23C433 0 370-12 307-12 165-12 41 69 41 240zm391 35c7 51-25 143-147 143-82 0-158-49-164-143h311zM217 607c0 38 28 58 60 58 33 0 60-20 60-58 0-39-27-59-60-59-32 0-60 20-60 59z"/><glyph glyph-name="egrave" unicode="è" horiz-adv-x="548" d="M41 240c0 168 125 252 239 252 185 0 253-151 223-287H121C131 104 222 62 319 62c59 0 117 16 158 39V23C433 0 370-12 307-12 165-12 41 69 41 240zm391 35c7 51-25 143-147 143-82 0-158-49-164-143h311zm-85 275h-87L156 697h100z"/><glyph glyph-name="emacron" unicode="ē" horiz-adv-x="548" d="M41 240c0 168 125 252 239 252 185 0 253-151 223-287H121C131 104 222 62 319 62c59 0 117 16 158 39V23C433 0 370-12 307-12 165-12 41 69 41 240zm391 35c7 51-25 143-147 143-82 0-158-49-164-143h311zM131 637h300v-73H131v73z"/><glyph glyph-name="eogonek" unicode="ę" horiz-adv-x="548" d="M465-210c-22-15-50-22-79-22-66-1-99 39-99 89 0 44 26 92 77 134-19-2-38-3-57-3C165-12 41 69 41 240c0 168 125 252 239 252 185 0 253-150 223-287H121C131 104 222 62 319 62c59 0 117 16 158 39V23C397-38 362-90 363-126c-1-24 14-40 43-41 19 1 42 8 59 21v-64zM285 418c-82 0-158-49-164-143h311c7 51-25 143-147 143z"/><glyph glyph-name="f" unicode="f" horiz-adv-x="381" d="M191 0h-80v406H21v74h90v58c0 134 86 174 170 174 44 0 87-9 120-22v-74c-27 13-65 22-101 22-58 0-109-15-109-103v-55h180v-74H191V0z"/><glyph glyph-name="g" unicode="g" horiz-adv-x="621" d="M41 240c0 144 103 252 240 252 92 0 151-43 194-92v80h72V0c0-165-129-232-262-232-71 0-138 16-195 45v78c57-32 119-49 185-49 102 0 193 39 192 158v74c-35-43-94-86-186-86C144-12 41 96 41 240zm426 60c-27 62-91 118-177 118-93 0-169-68-169-178S197 62 290 62c86 0 150 52 177 108v130z"/><glyph glyph-name="gbreve" unicode="ğ" horiz-adv-x="621" d="M41 240c0 144 103 252 240 252 92 0 151-43 194-92v80h72V0c0-165-129-232-262-232-71 0-138 16-195 45v78c57-32 119-49 185-49 102 0 193 39 192 158v74c-35-43-94-86-186-86C144-12 41 96 41 240zm426 60c-27 62-91 118-177 118-93 0-169-68-169-178S197 62 290 62c86 0 150 52 177 108v130zm-38 290c-45-32-92-42-140-42s-95 10-140 42v78c50-33 91-44 140-44s90 11 140 44v-78z"/><glyph glyph-name="gcommaaccent" unicode="ģ" horiz-adv-x="621" d="M329 546h-80l33 164h70zM41 240c0 144 103 252 240 252 92 0 151-43 194-92v80h72V0c0-165-129-232-262-232-71 0-138 16-195 45v78c57-32 119-49 185-49 102 0 193 39 192 158v74c-35-43-94-86-186-86C144-12 41 96 41 240zm426 60c-27 62-91 118-177 118-93 0-169-68-169-178S197 62 290 62c86 0 150 52 177 108v130z"/><glyph glyph-name="gdotaccent" unicode="ġ" horiz-adv-x="621" d="M41 240c0 144 103 252 240 252 92 0 151-43 194-92v80h72V0c0-165-129-232-262-232-71 0-138 16-195 45v78c57-32 119-49 185-49 102 0 193 39 192 158v74c-35-43-94-86-186-86C144-12 41 96 41 240zm426 60c-27 62-91 118-177 118-93 0-169-68-169-178S197 62 290 62c86 0 150 52 177 108v130zM225 607c0 38 28 58 60 58 33 0 60-20 60-58 0-39-27-59-60-59-32 0-60 20-60 59z"/><glyph glyph-name="h" unicode="h" d="M74 700h80V419c34 38 94 73 165 73 115 0 200-79 200-196V0h-80v286c0 90-55 132-129 132-71 0-124-48-156-96V0H74v700z"/><glyph glyph-name="hbar" unicode="ħ" horiz-adv-x="586" d="M153 419c34 38 94 73 165 73 115 0 200-79 200-196V0h-80v286c0 90-55 132-129 132-71 0-124-48-156-96V0H73v561H14v60h59v79h80v-79h178v-60H153V419z"/><glyph glyph-name="i" unicode="i" horiz-adv-x="232" d="M156 0H76v480h80V0zm12 633c0-34-24-51-52-51s-52 17-52 51c0 33 24 51 52 51s52-18 52-51z"/><glyph glyph-name="dotlessi" unicode="ı" horiz-adv-x="232" d="M76 480h80V0H76v480z"/><glyph glyph-name="iacute" unicode="í" horiz-adv-x="232" d="M76 480h80V0H76v480zm61 70H50l91 147h100z"/><glyph glyph-name="icircumflex" unicode="î" horiz-adv-x="232" d="M83 687h72l107-136h-86l-57 76-57-76h-86zm-7-207h80V0H76v480z"/><glyph glyph-name="idieresis" unicode="ï" horiz-adv-x="232" d="M247 617c0-27-23-50-50-50s-50 23-50 50c0 26 23 50 50 50s50-24 50-50zm-162 0c0-27-23-50-50-50s-50 23-50 50c0 26 23 50 50 50s50-24 50-50zm-9-137h80V0H76v480z"/><glyph glyph-name="i.loclTRK" horiz-adv-x="232" d="M76 480h80V0H76v480zM52 607c0 38 28 58 60 58 33 0 60-20 60-58 0-39-27-59-60-59-32 0-60 20-60 59z"/><glyph glyph-name="igrave" unicode="ì" horiz-adv-x="232" d="M156 0H76v480h80V0zm26 550h-77L21 697h90z"/><glyph glyph-name="ij" unicode="ĳ" horiz-adv-x="464" d="M156 0H76v480h80V0zm12 633c0-34-24-51-52-51s-52 17-52 51c0 33 24 51 52 51s52-18 52-51zM388-89c0-113-73-143-138-143-29 0-54 5-74 13v74c16-8 34-11 52-11 42 0 80 16 80 79v557h80V-89zm12 722c0-34-24-51-52-51s-53 17-53 51c0 33 25 51 53 51s52-18 52-51z"/><glyph glyph-name="imacron" unicode="ī" horiz-adv-x="232" d="M6 649h220v-75H6v75zm70-169h80V0H76v480z"/><glyph glyph-name="iogonek" unicode="į" horiz-adv-x="233" d="M170 633c0-34-24-51-52-51s-53 17-53 51c0 33 25 51 53 51s52-18 52-51zM88-127c-1-24 14-40 43-41 19 1 42 8 59 21v-64c-22-15-50-22-79-22-66-1-99 39-99 89C12-98 40-40 77 6v474h80V0c-35-38-70-91-69-127z"/><glyph glyph-name="j" unicode="j" horiz-adv-x="232" d="M156-89c0-113-73-143-138-143-29 0-54 5-74 13v74c16-8 34-11 52-11 42 0 80 16 80 79v557h80V-89zm12 722c0-34-24-51-52-51s-53 17-53 51c0 33 25 51 53 51s52-18 52-51z"/><glyph glyph-name="k" unicode="k" horiz-adv-x="521" d="M518 0h-94L248 206h-94V0H74v700h80V280h97l152 200h93L314 241z"/><glyph glyph-name="kcommaaccent" unicode="ķ" horiz-adv-x="521" d="M518 0h-94L248 206h-94V0H74v700h80V280h97l152 200h93L314 241zM283-231h-70l25 190h80z"/><glyph glyph-name="l" unicode="l" horiz-adv-x="232" d="M76 730h80V0H76v730z"/><glyph glyph-name="lacute" unicode="ĺ" horiz-adv-x="232" d="M76 730h80V0H76v730zm78 40H67l91 147h100z"/><glyph glyph-name="lcaron" unicode="ľ" horiz-adv-x="232" d="M232 730h80l-28-184h-70zm-156 0h80V0H76v730z"/><glyph glyph-name="lcommaaccent" unicode="ļ" horiz-adv-x="232" d="M76 730h80V0H76v730zm49-961H55L80-41h80z"/><glyph glyph-name="ldot" unicode="ŀ" horiz-adv-x="291" d="M76 730h80V0H76v730zm238-380c0-34-24-51-52-51s-53 17-53 51 25 51 53 51 52-17 52-51z"/><glyph glyph-name="lslash" unicode="ł" horiz-adv-x="295" d="M108 730h80V425l84 35v-70l-84-36V0h-80v323l-84-35v70l84 36v336z"/><glyph glyph-name="m" unicode="m" horiz-adv-x="890" d="M154 0H74v480h72v-64c26 28 83 76 164 76 72 0 125-31 154-81 43 44 102 81 175 81 119 0 183-84 183-196V0h-80v298c0 73-42 120-112 120-65 0-113-45-140-79 2-14 3-28 3-43V0h-80v298c0 73-42 120-112 120-71 0-121-53-147-87V0z"/><glyph glyph-name="n" unicode="n" d="M146 409c32 42 96 83 173 83 115 0 200-79 200-196V0h-80v286c0 90-55 132-129 132-71 0-124-48-156-96V0H74v480h72v-71z"/><glyph glyph-name="nacute" unicode="ń" d="M146 409c32 42 96 83 173 83 115 0 200-79 200-196V0h-80v286c0 90-55 132-129 132-71 0-124-48-156-96V0H74v480h72v-71zm173 141h-87l91 147h100z"/><glyph glyph-name="ncaron" unicode="ň" d="M146 409c32 42 96 83 173 83 115 0 200-79 200-196V0h-80v286c0 90-55 132-129 132-71 0-124-48-156-96V0H74v480h72v-71zm323 278L337 541h-72L133 687h91l77-86 77 86h91z"/><glyph glyph-name="ncommaaccent" unicode="ņ" d="M146 409c32 42 96 83 173 83 115 0 200-79 200-196V0h-80v286c0 90-55 132-129 132-71 0-124-48-156-96V0H74v480h72v-71zm162-640h-70l25 190h80z"/><glyph glyph-name="eng" unicode="ŋ" d="M519-89c0-113-73-143-138-143-29 0-54 5-74 13v74c16-8 34-13 52-13 42 0 80 18 80 81v363c0 90-55 132-129 132-71 0-124-48-156-96V0H74v480h72v-71c32 42 96 83 173 83 115 0 200-79 200-196V-89z"/><glyph glyph-name="ntilde" unicode="ñ" d="M146 409c32 42 96 83 173 83 115 0 200-79 200-196V0h-80v286c0 90-55 132-129 132-71 0-124-48-156-96V0H74v480h72v-71zm317 240c10-72-34-106-82-106-61 0-118 42-148 42-21 0-32-15-29-37h-70c-11 72 33 107 80 107 60 0 118-42 149-42 23 0 32 14 30 36h70z"/><glyph glyph-name="o" unicode="o" horiz-adv-x="594" d="M41 240c0 164 126 252 256 252 131 0 256-88 256-252S428-12 297-12C167-12 41 76 41 240zm432 0c0 111-78 176-176 176s-176-65-176-176S199 64 297 64s176 65 176 176z"/><glyph glyph-name="oacute" unicode="ó" horiz-adv-x="594" d="M41 240c0 164 126 252 256 252 131 0 256-88 256-252S428-12 297-12C167-12 41 76 41 240zm432 0c0 111-78 176-176 176s-176-65-176-176S199 64 297 64s176 65 176 176zM317 550h-87l91 147h100z"/><glyph glyph-name="ocircumflex" unicode="ô" horiz-adv-x="594" d="M41 240c0 164 126 252 256 252 131 0 256-88 256-252S428-12 297-12C167-12 41 76 41 240zm432 0c0 111-78 176-176 176s-176-65-176-176S199 64 297 64s176 65 176 176zM263 697h72l132-146h-91l-77 86-77-86h-91z"/><glyph glyph-name="odieresis" unicode="ö" horiz-adv-x="594" d="M41 240c0 164 126 252 256 252 131 0 256-88 256-252S428-12 297-12C167-12 41 76 41 240zm432 0c0 111-78 176-176 176s-176-65-176-176S199 64 297 64s176 65 176 176zm-22 377c0-30-25-55-55-55s-55 25-55 55c0 29 25 55 55 55s55-26 55-55zm-202 0c0-30-25-55-55-55s-55 25-55 55c0 29 25 55 55 55s55-26 55-55z"/><glyph glyph-name="ograve" unicode="ò" horiz-adv-x="594" d="M41 240c0 164 126 252 256 252 131 0 256-88 256-252S428-12 297-12C167-12 41 76 41 240zm432 0c0 111-78 176-176 176s-176-65-176-176S199 64 297 64s176 65 176 176zM362 550h-87L171 697h100z"/><glyph glyph-name="ohungarumlaut" unicode="ő" horiz-adv-x="594" d="M41 240c0 164 126 252 256 252 131 0 256-88 256-252S428-12 297-12C167-12 41 76 41 240zm432 0c0 111-78 176-176 176s-176-65-176-176S199 64 297 64s176 65 176 176zm-60 320h-85l69 147h90zm-155 0h-85l69 147h90z"/><glyph glyph-name="omacron" unicode="ō" horiz-adv-x="594" d="M41 240c0 164 126 252 256 252 131 0 256-88 256-252S428-12 297-12C167-12 41 76 41 240zm432 0c0 111-78 176-176 176s-176-65-176-176S199 64 297 64s176 65 176 176zM146 637h300v-73H146v73z"/><glyph glyph-name="oslash" unicode="ø" horiz-adv-x="594" d="M533 543l-71-106c55-42 91-108 91-197C553 76 428-12 297-12c-41 0-81 9-117 25l-49-73H61l69 104C77 86 41 152 41 240c0 164 126 252 256 252 40 0 80-8 116-25l50 76h70zM297 416c-98 0-176-65-176-176 0-56 20-101 53-131l195 294c-22 8-46 13-72 13zM223 78c22-9 47-14 74-14 98 0 176 65 176 176 0 57-21 102-54 132z"/><glyph glyph-name="otilde" unicode="õ" horiz-adv-x="594" d="M41 240c0 164 126 252 256 252 131 0 256-88 256-252S428-12 297-12C167-12 41 76 41 240zm432 0c0 111-78 176-176 176s-176-65-176-176S199 64 297 64s176 65 176 176zm-12 409c10-72-34-106-82-106-61 0-118 42-148 42-21 0-32-15-29-37h-70c-11 72 33 107 80 107 60 0 118-42 149-42 23 0 32 14 30 36h70z"/><glyph glyph-name="oe" unicode="œ" horiz-adv-x="979" d="M512 103C467 27 385-12 297-12 167-12 41 76 41 240s126 252 256 252c87 0 170-39 215-114 43 76 122 114 200 114 185 0 253-151 223-292H553c10-96 101-138 198-138 55 0 113 16 154 39V27C861 2 796-12 734-12c-90 0-176 37-222 115zM121 240c0-111 78-176 176-176s176 65 176 176-78 176-176 176-176-65-176-176zm596 178c-84 0-158-49-164-148h311c7 56-25 148-147 148z"/><glyph glyph-name="p" unicode="p" horiz-adv-x="621" d="M146 400c43 49 102 92 194 92 137 0 240-108 240-252S477-12 340-12c-92 0-151 43-186 84v-292H74v700h72v-80zm354-160c0 110-76 178-169 178-86 0-150-56-177-118V180c27-62 91-118 177-118 93 0 169 68 169 178z"/><glyph glyph-name="thorn" unicode="þ" horiz-adv-x="621" d="M74 700h80V408c35 41 94 84 186 84 137 0 240-108 240-252S477-12 340-12c-92 0-151 43-186 84v-292H74v920zm426-460c0 110-76 178-169 178-86 0-150-56-177-118V180c27-62 91-118 177-118 93 0 169 68 169 178z"/><glyph glyph-name="q" unicode="q" horiz-adv-x="621" d="M41 240c0 144 103 252 240 252 92 0 151-43 194-92v80h72v-700h-80V72c-35-41-94-84-186-84C144-12 41 96 41 240zm426 60c-27 62-91 118-177 118-93 0-169-68-169-178S197 62 290 62c86 0 150 56 177 118v120z"/><glyph glyph-name="r" unicode="r" horiz-adv-x="366" d="M146 395c38 63 123 102 207 95v-80c-94 11-170-34-199-111V0H74v480h72v-85z"/><glyph glyph-name="racute" unicode="ŕ" horiz-adv-x="366" d="M146 395c38 63 123 102 207 95v-80c-94 11-170-34-199-111V0H74v480h72v-85zm83 155h-87l91 147h100z"/><glyph glyph-name="rcaron" unicode="ř" horiz-adv-x="365" d="M145 395c38 63 123 102 207 95v-80c-94 11-170-34-199-111V0H73v480h72v-85zm233 292L246 541h-72L42 687h91l77-86 77 86h91z"/><glyph glyph-name="rcommaaccent" unicode="ŗ" horiz-adv-x="366" d="M146 395c38 63 123 102 207 95v-80c-94 11-170-34-199-111V0H74v480h72v-85zm-28-626H48L73-41h80z"/><glyph glyph-name="s" unicode="s" horiz-adv-x="466" d="M46 354c0 99 93 138 183 138 64 0 125-17 170-41v-76c-40 26-107 45-165 45-52 0-107-17-107-64 0-104 305-60 305-233 0-100-94-135-198-135C166-12 93 6 48 35v78c49-33 122-51 182-51 68 0 122 11 122 59 0 101-306 61-306 233z"/><glyph glyph-name="sacute" unicode="ś" horiz-adv-x="466" d="M46 354c0 99 93 138 183 138 64 0 125-17 170-41v-76c-40 26-107 45-165 45-52 0-107-17-107-64 0-104 305-60 305-233 0-100-94-135-198-135C166-12 93 6 48 35v78c49-33 122-51 182-51 68 0 122 11 122 59 0 101-306 61-306 233zm200 196h-87l91 147h100z"/><glyph glyph-name="scaron" unicode="š" horiz-adv-x="466" d="M46 354c0 99 93 138 183 138 64 0 125-17 170-41v-76c-40 26-107 45-165 45-52 0-107-17-107-64 0-104 305-60 305-233 0-100-94-135-198-135C166-12 93 6 48 35v78c49-33 122-51 182-51 68 0 122 11 122 59 0 101-306 61-306 233zm350 333L264 541h-72L60 687h91l77-86 77 86h91z"/><glyph glyph-name="scedilla" unicode="ş" horiz-adv-x="466" d="M127 356c0-104 305-60 305-233 0-86-69-124-155-133l-12-48c64 3 104-26 105-78 1-65-54-96-133-96-40 0-70 7-98 19v68c23-13 54-22 89-22 49 0 73 13 73 34 0 30-64 35-115 25l22 97C148-7 87 10 48 35v78c49-33 122-51 182-51 68 0 122 11 122 59 0 101-306 61-306 233 0 99 93 138 183 138 64 0 125-17 170-41v-76c-40 26-107 45-165 45-52 0-107-17-107-64z"/><glyph glyph-name="scommaaccent" unicode="ș" horiz-adv-x="466" d="M46 354c0 99 93 138 183 138 64 0 125-17 170-41v-76c-40 26-107 45-165 45-52 0-107-17-107-64 0-104 305-60 305-233 0-100-94-135-198-135C166-12 93 6 48 35v78c49-33 122-51 182-51 68 0 122 11 122 59 0 101-306 61-306 233zm198-585h-70l25 190h80z"/><glyph glyph-name="germandbls" unicode="ß" horiz-adv-x="594" d="M560 147C560 36 458-12 360-12c-41 0-88 9-125 24v70c37-16 77-24 110-24 69 0 135 24 135 95 0 92-151 148-151 220 0 69 72 102 72 183 0 49-40 86-112 86-79 0-135-46-135-131V0H74v497c0 137 84 214 215 215 135 1 192-80 192-147 0-88-72-127-72-178 0-66 151-115 151-240z"/><glyph glyph-name="t" unicode="t" horiz-adv-x="410" d="M106 629l79 20V480h192v-74H185V158c0-73 33-95 103-95 38 0 74 9 106 22V11c-36-13-83-22-129-22-93 0-159 50-159 155v262H16v74h90v149z"/><glyph glyph-name="tbar" unicode="ŧ" horiz-adv-x="411" d="M186 158c0-73 33-95 103-95 38 0 74 9 106 22V11c-36-13-83-22-129-22-93 0-159 50-159 155v84H61v70h46v108H17v74h90v149l79 20V480h192v-74H186V298h157v-70H186v-70z"/><glyph glyph-name="tcaron" unicode="ť" horiz-adv-x="410" d="M277 730h80l-28-174h-70zM106 629l79 20V480h192v-74H185V158c0-73 33-95 103-95 38 0 74 9 106 22V11c-36-13-83-22-129-22-93 0-159 50-159 155v262H16v74h90v149z"/><glyph glyph-name="tcommaaccent" unicode="ţ" horiz-adv-x="410" d="M106 629l79 20V480h192v-74H185V158c0-73 33-95 103-95 38 0 74 9 106 22V11c-36-13-83-22-129-22-93 0-159 50-159 155v262H16v74h90v149zm150-860h-70l25 190h80z"/><glyph glyph-name="uni021B" unicode="ț" horiz-adv-x="410" d="M106 629l79 20V480h192v-74H185V158c0-73 33-95 103-95 38 0 74 9 106 22V11c-36-13-83-22-129-22-93 0-159 50-159 155v262H16v74h90v149zm150-860h-70l25 190h80z"/><glyph glyph-name="u" unicode="u" d="M433 480h80V0h-72v71c-32-42-96-83-173-83C143-12 68 67 68 184v296h80V194c0-90 45-132 129-132 71 0 124 48 156 96v322z"/><glyph glyph-name="uacute" unicode="ú" d="M433 480h80V0h-72v71c-32-42-96-83-173-83C143-12 68 67 68 184v296h80V194c0-90 45-132 129-132 71 0 124 48 156 96v322zm-120 70h-87l91 147h100z"/><glyph glyph-name="ucircumflex" unicode="û" d="M433 480h80V0h-72v71c-32-42-96-83-173-83C143-12 68 67 68 184v296h80V194c0-90 45-132 129-132 71 0 124 48 156 96v322zM259 697h72l132-146h-91l-77 86-77-86h-91z"/><glyph glyph-name="udieresis" unicode="ü" d="M433 480h80V0h-72v71c-32-42-96-83-173-83C143-12 68 67 68 184v296h80V194c0-90 45-132 129-132 71 0 124 48 156 96v322zm14 137c0-30-25-55-55-55s-55 25-55 55c0 29 25 55 55 55s55-26 55-55zm-202 0c0-30-25-55-55-55s-55 25-55 55c0 29 25 55 55 55s55-26 55-55z"/><glyph glyph-name="ugrave" unicode="ù" d="M433 480h80V0h-72v71c-32-42-96-83-173-83C143-12 68 67 68 184v296h80V194c0-90 45-132 129-132 71 0 124 48 156 96v322zm-75 70h-87L167 697h100z"/><glyph glyph-name="uhungarumlaut" unicode="ű" d="M433 480h80V0h-72v71c-32-42-96-83-173-83C143-12 68 67 68 184v296h80V194c0-90 45-132 129-132 71 0 124 48 156 96v322zm-24 80h-85l69 147h90zm-155 0h-85l69 147h90z"/><glyph glyph-name="umacron" unicode="ū" d="M433 480h80V0h-72v71c-32-42-96-83-173-83C143-12 68 67 68 184v296h80V194c0-90 45-132 129-132 71 0 124 48 156 96v322zM142 637h300v-73H142v73z"/><glyph glyph-name="uogonek" unicode="ų" d="M513 480V0c-56-38-91-90-90-126-1-24 14-41 43-41 17 0 32 4 47 12v-62c-20-10-43-15-67-15-66 0-99 39-99 89 0 46 28 102 94 160v54c-32-42-96-83-173-83C143-12 68 67 68 184v296h80V194c0-90 45-132 129-132 71 0 124 48 156 96v322h80z"/><glyph glyph-name="uring" unicode="ů" d="M433 480h80V0h-72v71c-32-42-96-83-173-83C143-12 68 67 68 184v296h80V194c0-90 45-132 129-132 71 0 124 48 156 96v322zm-27 155c0-69-55-111-115-111-61 0-116 42-116 111 0 67 55 109 116 109 60 0 115-42 115-109zm-170-1c0-35 26-55 55-55s55 20 55 55c0 34-26 55-55 55s-55-21-55-55z"/><glyph glyph-name="v" unicode="v" horiz-adv-x="536" d="M433 480h89L310 0h-84L14 480h89L268 90z"/><glyph glyph-name="w" unicode="w" horiz-adv-x="798" d="M696 480h84L616 0h-87L399 371 269 0h-87L18 480h84L226 88l137 392h72L572 88z"/><glyph glyph-name="wacute" unicode="ẃ" horiz-adv-x="798" d="M696 480h84L616 0h-87L399 371 269 0h-87L18 480h84L226 88l137 392h72L572 88zm-276 70h-87l91 147h100z"/><glyph glyph-name="wcircumflex" unicode="ŵ" horiz-adv-x="798" d="M696 480h84L616 0h-87L399 371 269 0h-87L18 480h84L226 88l137 392h72L572 88zM366 697h72l132-146h-91l-77 86-77-86h-91z"/><glyph glyph-name="wdieresis" unicode="ẅ" horiz-adv-x="798" d="M696 480h84L616 0h-87L399 371 269 0h-87L18 480h84L226 88l137 392h72L572 88zM554 617c0-30-25-55-55-55s-55 25-55 55c0 29 25 55 55 55s55-26 55-55zm-202 0c0-30-25-55-55-55s-55 25-55 55c0 29 25 55 55 55s55-26 55-55z"/><glyph glyph-name="wgrave" unicode="ẁ" horiz-adv-x="798" d="M696 480h84L616 0h-87L399 371 269 0h-87L18 480h84L226 88l137 392h72L572 88zm-231 70h-87L274 697h100z"/><glyph glyph-name="x" unicode="x" horiz-adv-x="489" d="M375 480h92L291 247 477 0h-92L245 190 104 0H12l187 247L22 480h92l131-177z"/><glyph glyph-name="y" unicode="y" horiz-adv-x="538" d="M276 91l162 389h85L287-72c-50-116-111-160-181-160-17 0-34 2-52 7v69c14-4 28-6 42-6 54 0 93 39 124 117l18 44L10 480h85z"/><glyph glyph-name="yacute" unicode="ý" horiz-adv-x="538" d="M276 91l162 389h85L287-72c-50-116-111-160-181-160-17 0-34 2-52 7v69c14-4 28-6 42-6 54 0 93 39 124 117l18 44L10 480h85zm5 459h-87l91 147h100z"/><glyph glyph-name="ycircumflex" unicode="ŷ" horiz-adv-x="538" d="M276 91l162 389h85L287-72c-50-116-111-160-181-160-17 0-34 2-52 7v69c14-4 28-6 42-6 54 0 93 39 124 117l18 44L10 480h85zm-49 606h72l132-146h-91l-77 86-77-86H95z"/><glyph glyph-name="ydieresis" unicode="ÿ" horiz-adv-x="538" d="M276 91l162 389h85L287-72c-50-116-111-160-181-160-17 0-34 2-52 7v69c14-4 28-6 42-6 54 0 93 39 124 117l18 44L10 480h85zm139 526c0-30-25-55-55-55s-55 25-55 55c0 29 25 55 55 55s55-26 55-55zm-202 0c0-30-25-55-55-55s-55 25-55 55c0 29 25 55 55 55s55-26 55-55z"/><glyph glyph-name="ygrave" unicode="ỳ" horiz-adv-x="538" d="M276 91l162 389h85L287-72c-50-116-111-160-181-160-17 0-34 2-52 7v69c14-4 28-6 42-6 54 0 93 39 124 117l18 44L10 480h85zm50 459h-87L135 697h100z"/><glyph glyph-name="z" unicode="z" horiz-adv-x="464" d="M48 480h364v-71L130 70h301V0H36v71l282 339H48v70z"/><glyph glyph-name="zacute" unicode="ź" horiz-adv-x="464" d="M48 480h364v-71L130 70h301V0H36v71l282 339H48v70zm207 70h-87l91 147h100z"/><glyph glyph-name="zcaron" unicode="ž" horiz-adv-x="464" d="M48 480h364v-71L130 70h301V0H36v71l282 339H48v70zm357 207L273 541h-72L69 687h91l77-86 77 86h91z"/><glyph glyph-name="zdotaccent" unicode="ż" horiz-adv-x="464" d="M48 480h364v-71L130 70h301V0H36v71l282 339H48v70zm122 127c0 38 28 58 60 58 33 0 60-20 60-58 0-39-27-59-60-59-32 0-60 20-60 59z"/><glyph glyph-name="a.ss01" horiz-adv-x="621" d="M475 80c-43-49-102-92-194-92C144-12 41 96 41 240s103 252 240 252c92 0 151-43 194-92v80h72V0h-72v80zM121 240c0-110 76-178 169-178 86 0 150 56 177 118v120c-27 62-91 118-177 118-93 0-169-68-169-178z"/><glyph glyph-name="aacute.ss01" horiz-adv-x="621" d="M475 80c-43-49-102-92-194-92C144-12 41 96 41 240s103 252 240 252c92 0 151-43 194-92v80h72V0h-72v80zM121 240c0-110 76-178 169-178 86 0 150 56 177 118v120c-27 62-91 118-177 118-93 0-169-68-169-178zm214 310h-87l91 147h100z"/><glyph glyph-name="abreve.ss01" horiz-adv-x="621" d="M475 80c-43-49-102-92-194-92C144-12 41 96 41 240s103 252 240 252c92 0 151-43 194-92v80h72V0h-72v80zM121 240c0-110 76-178 169-178 86 0 150 56 177 118v120c-27 62-91 118-177 118-93 0-169-68-169-178zm333 350c-45-32-92-42-140-42s-95 10-140 42v78c50-33 91-44 140-44s90 11 140 44v-78z"/><glyph glyph-name="acircumflex.ss01" horiz-adv-x="621" d="M475 80c-43-49-102-92-194-92C144-12 41 96 41 240s103 252 240 252c92 0 151-43 194-92v80h72V0h-72v80zM121 240c0-110 76-178 169-178 86 0 150 56 177 118v120c-27 62-91 118-177 118-93 0-169-68-169-178zm160 457h72l132-146h-91l-77 86-77-86h-91z"/><glyph glyph-name="adieresis.ss01" horiz-adv-x="621" d="M475 80c-43-49-102-92-194-92C144-12 41 96 41 240s103 252 240 252c92 0 151-43 194-92v80h72V0h-72v80zM121 240c0-110 76-178 169-178 86 0 150 56 177 118v120c-27 62-91 118-177 118-93 0-169-68-169-178zm348 377c0-30-25-55-55-55s-55 25-55 55c0 29 25 55 55 55s55-26 55-55zm-202 0c0-30-25-55-55-55s-55 25-55 55c0 29 25 55 55 55s55-26 55-55z"/><glyph glyph-name="agrave.ss01" horiz-adv-x="621" d="M475 80c-43-49-102-92-194-92C144-12 41 96 41 240s103 252 240 252c92 0 151-43 194-92v80h72V0h-72v80zM121 240c0-110 76-178 169-178 86 0 150 56 177 118v120c-27 62-91 118-177 118-93 0-169-68-169-178zm259 310h-87L189 697h100z"/><glyph glyph-name="amacron.ss01" horiz-adv-x="621" d="M475 80c-43-49-102-92-194-92C144-12 41 96 41 240s103 252 240 252c92 0 151-43 194-92v80h72V0h-72v80zM121 240c0-110 76-178 169-178 86 0 150 56 177 118v120c-27 62-91 118-177 118-93 0-169-68-169-178zm43 397h300v-73H164v73z"/><glyph glyph-name="aogonek.ss01" horiz-adv-x="621" d="M121 240c0-110 76-178 169-178 86 0 150 56 177 118v120c-27 62-91 118-177 118-93 0-169-68-169-178zm426 240V0c-55-38-90-91-89-127-1-24 14-41 43-41 16 0 31 4 45 11v-62c-19-10-42-14-65-14-66-1-99 39-99 89 0 46 28 103 93 161v63c-43-49-102-92-194-92C144-12 41 96 41 240s103 252 240 252c92 0 151-43 194-92v80h72z"/><glyph glyph-name="aring.ss01" horiz-adv-x="621" d="M475 80c-43-49-102-92-194-92C144-12 41 96 41 240s103 252 240 252c92 0 151-43 194-92v80h72V0h-72v80zM121 240c0-110 76-178 169-178 86 0 150 56 177 118v120c-27 62-91 118-177 118-93 0-169-68-169-178zm307 395c0-69-55-111-115-111-61 0-116 42-116 111 0 67 55 109 116 109 60 0 115-42 115-109zm-170-1c0-35 26-55 55-55s55 20 55 55c0 34-26 55-55 55s-55-21-55-55z"/><glyph glyph-name="atilde.ss01" horiz-adv-x="621" d="M475 80c-43-49-102-92-194-92C144-12 41 96 41 240s103 252 240 252c92 0 151-43 194-92v80h72V0h-72v80zM121 240c0-110 76-178 169-178 86 0 150 56 177 118v120c-27 62-91 118-177 118-93 0-169-68-169-178zm358 409c10-72-34-106-82-106-61 0-118 42-148 42-21 0-32-15-29-37h-70c-11 72 33 107 80 107 60 0 118-42 149-42 23 0 32 14 30 36h70z"/><glyph glyph-name="ae.ss01" horiz-adv-x="984" d="M475 80c-43-49-102-92-194-92C144-12 41 96 41 240s103 252 240 252c92 0 151-43 194-92v80h72v-84c41 64 107 96 179 96 180 0 243-150 213-292H557c10-96 101-138 198-138 55 0 113 16 154 39V27c-44-25-99-39-161-39-84 0-158 32-201 99V0h-72v80zM121 240c0-110 76-178 169-178 86 0 150 56 177 118v120c-27 62-91 118-177 118-93 0-169-68-169-178zm600 178c-84 0-158-49-164-148h311c7 56-25 148-147 148z"/><glyph glyph-name="y.ss01" d="M513 0c-4-173-131-232-250-232-66 0-133 16-174 40v74c39-27 103-40 164-40 90 0 181 33 180 158v61c-34-38-94-73-165-73C143-12 68 67 68 184v296h80V194c0-90 45-132 129-132 71 0 124 48 156 96v322h80V0z"/><glyph glyph-name="yacute.ss01" d="M513 0c-4-173-131-232-250-232-66 0-133 16-174 40v74c39-27 103-40 164-40 90 0 181 33 180 158v61c-34-38-94-73-165-73C143-12 68 67 68 184v296h80V194c0-90 45-132 129-132 71 0 124 48 156 96v322h80V0zM313 550h-87l91 147h100z"/><glyph glyph-name="ycircumflex.ss01" d="M513 0c-4-173-131-232-250-232-66 0-133 16-174 40v74c39-27 103-40 164-40 90 0 181 33 180 158v61c-34-38-94-73-165-73C143-12 68 67 68 184v296h80V194c0-90 45-132 129-132 71 0 124 48 156 96v322h80V0zM259 697h72l132-146h-91l-77 86-77-86h-91z"/><glyph glyph-name="ydieresis.ss01" d="M513 0c-4-173-131-232-250-232-66 0-133 16-174 40v74c39-27 103-40 164-40 90 0 181 33 180 158v61c-34-38-94-73-165-73C143-12 68 67 68 184v296h80V194c0-90 45-132 129-132 71 0 124 48 156 96v322h80V0zm-66 617c0-30-25-55-55-55s-55 25-55 55c0 29 25 55 55 55s55-26 55-55zm-202 0c0-30-25-55-55-55s-55 25-55 55c0 29 25 55 55 55s55-26 55-55z"/><glyph glyph-name="ygrave.ss01" d="M513 0c-4-173-131-232-250-232-66 0-133 16-174 40v74c39-27 103-40 164-40 90 0 181 33 180 158v61c-34-38-94-73-165-73C143-12 68 67 68 184v296h80V194c0-90 45-132 129-132 71 0 124 48 156 96v322h80V0zM358 550h-87L167 697h100z"/><glyph glyph-name="f_b" horiz-adv-x="965" d="M498 408c35 41 94 84 186 84 137 0 240-108 240-252S821-12 684-12c-92 0-151 43-194 92V0h-72v616c-37 16-73 22-114 22-65 0-113-29-113-95v-63h150v-74H191V0h-80v406H21v74h90v63c0 109 80 169 189 169 48 0 88-10 131-29l67 17V408zm0-228c27-62 91-118 177-118 93 0 169 68 169 178s-76 178-169 178c-86 0-150-56-177-118V180z"/><glyph glyph-name="f_f_b" horiz-adv-x="1275" d="M808 408c35 41 94 84 186 84 137 0 240-108 240-252S1131-12 994-12c-92 0-151 43-194 92V0h-72v626c-37 16-73 22-114 22-65 0-113-29-113-105v-63h150v-74H501V0h-80v406H191V0h-80v406H21v74h90v53c0 109 80 169 189 169 61 0 104-14 157-43 34 42 88 63 153 63 48 0 88-10 131-29l67 17V408zm-387 72v63c0 19 2 37 6 53-37 22-69 32-123 32-65 0-113-29-113-95v-53h230zm387-300c27-62 91-118 177-118 93 0 169 68 169 178s-76 178-169 178c-86 0-150-56-177-118V180z"/><glyph glyph-name="f_f_h" horiz-adv-x="1241" d="M808 419c34 38 94 73 165 73 115 0 200-79 200-196V0h-80v286c0 90-55 132-129 132-71 0-124-48-156-96V0h-80v626c-37 16-73 22-114 22-65 0-113-29-113-105v-63h150v-74H501V0h-80v406H191V0h-80v406H21v74h90v53c0 109 80 169 189 169 61 0 104-14 157-43 34 42 88 63 153 63 48 0 88-10 131-29l67 17V419zm-387 61v63c0 19 2 37 6 53-37 22-69 32-123 32-65 0-113-29-113-95v-53h230z"/><glyph glyph-name="f_f_j" horiz-adv-x="874" d="M798-89c0-113-73-143-138-143-29 0-54 5-74 13v74c16-8 34-13 52-13 42 0 80 18 80 81v483H501V0h-80v406H191V0h-80v406H21v74h90v53c0 109 80 169 189 169 61 0 104-14 157-43 34 42 88 63 153 63 53 0 97-12 145-35v-80c-47 27-90 41-141 41-65 0-113-29-113-105v-63h297V-89zM191 533v-53h230v63c0 19 2 37 6 53-37 22-69 32-123 32-65 0-113-29-113-95z"/><glyph glyph-name="f_f_k" horiz-adv-x="1175" d="M1150 480L968 241 1172 0h-94L902 206h-94V0h-80v626c-37 16-73 22-114 22-65 0-113-29-113-105v-63h150v-74H501V0h-80v406H191V0h-80v406H21v74h90v53c0 109 80 169 189 169 61 0 104-14 157-43 34 42 88 63 153 63 48 0 88-10 131-29l67 17V280h97l152 200h93zm-729 0v63c0 19 2 37 6 53-37 22-69 32-123 32-65 0-113-29-113-95v-53h230z"/><glyph glyph-name="f_h" horiz-adv-x="931" d="M498 419c34 38 94 73 165 73 115 0 200-79 200-196V0h-80v286c0 90-55 132-129 132-71 0-124-48-156-96V0h-80v616c-37 16-73 22-114 22-65 0-113-29-113-95v-63h150v-74H191V0h-80v406H21v74h90v63c0 109 80 169 189 169 48 0 88-10 131-29l67 17V419z"/><glyph glyph-name="f_i" horiz-adv-x="564" d="M191 480h297V0h-80v406H191V0h-80v406H21v74h90v63c0 109 80 169 189 169 53 0 97-12 145-35v-80c-47 27-90 41-141 41-65 0-113-29-113-95v-63z"/><glyph glyph-name="f_j" horiz-adv-x="564" d="M191 480h297V-89c0-113-73-143-138-143-29 0-54 5-74 13v74c16-8 34-13 52-13 42 0 80 18 80 81v483H191V0h-80v406H21v74h90v63c0 109 80 169 189 169 53 0 97-12 145-35v-80c-47 27-90 41-141 41-65 0-113-29-113-95v-63z"/><glyph glyph-name="f_k" horiz-adv-x="865" d="M840 480L658 241 862 0h-94L592 206h-94V0h-80v616c-37 16-73 22-114 22-65 0-113-29-113-95v-63h150v-74H191V0h-80v406H21v74h90v63c0 109 80 169 189 169 48 0 88-10 131-29l67 17V280h97l152 200h93z"/><glyph glyph-name="f_l" horiz-adv-x="574" d="M300 712c48 0 88-10 131-29l67 17V0h-80v616c-37 16-73 22-114 22-65 0-113-29-113-95v-63h150v-74H191V0h-80v406H21v74h90v63c0 109 80 169 189 169z"/><glyph glyph-name="uni0410" unicode="А" horiz-adv-x="717" d="M98 0H7l305 700h93L709 0h-90l-72 169H170zm249 587L203 247h311L369 587c-4 9-7 17-11 27-4-10-7-18-11-27z"/><glyph glyph-name="uni0411" unicode="Б" horiz-adv-x="666" d="M176 417h186c129 0 269-38 269-209S491 0 362 0H92v700h485v-80H176V417zm0-337h190c89 0 180 14 180 128 0 115-92 129-180 129H176V80z"/><glyph glyph-name="uni0412" unicode="В" horiz-adv-x="692" d="M92 700h287c143 0 238-59 238-177 0-89-57-139-112-155 58-16 140-62 140-176C645 33 489 0 387 0H92v700zm468-499c0 109-100 121-167 121H176V80h194c88 0 190 6 190 121zm-28 310c0 83-61 109-160 109H176V402h219c73 0 137 29 137 109z"/><glyph glyph-name="uni0413" unicode="Г" horiz-adv-x="567" d="M176 0H92v700h460v-80H176V0z"/><glyph glyph-name="uni0414" unicode="Д" horiz-adv-x="768" d="M99-165H19V80h85c90 163 114 405 114 620h430V80h88v-245h-80V0H99v-165zm205 785c-11-189-36-402-106-540h366v540H304z"/><glyph glyph-name="uni0415" unicode="Е" horiz-adv-x="618" d="M92 700h472v-80H176V393h358v-80H176V80h394V0H92v700z"/><glyph glyph-name="uni0401" unicode="Ё" horiz-adv-x="618" d="M489 837c0-30-25-55-55-55s-55 25-55 55c0 29 25 55 55 55s55-26 55-55zm-202 0c0-30-25-55-55-55s-55 25-55 55c0 29 25 55 55 55s55-26 55-55zM92 700h472v-80H176V393h358v-80H176V80h394V0H92v700z"/><glyph glyph-name="uni0416" unicode="Ж" horiz-adv-x="939" d="M103 0H7l227 359L28 700h96l177-303h127v303h84V397h126l177 303h96L705 359 932 0h-96L637 317H512V0h-84v317H302z"/><glyph glyph-name="uni0417" unicode="З" horiz-adv-x="610" d="M564 189C564 38 417-12 287-12 193-12 116 2 38 32v84c77-36 154-49 243-48 95 0 197 25 197 129 0 101-97 126-188 126H147v80h134c100 0 169 39 169 114 0 86-76 115-182 115-78 1-143-14-218-49v84c71 31 141 45 225 45 148 0 260-60 260-185 0-85-51-140-115-161 64-13 144-64 144-177z"/><glyph glyph-name="uni0418" unicode="И" horiz-adv-x="767" d="M675 0h-84v560L170 0H92v700h84V141l421 559h78V0z"/><glyph glyph-name="uni0419" unicode="Й" horiz-adv-x="767" d="M591 0h84v700h-78L176 141v559H92V0h78l421 560V0zm-68 810c-45-32-92-42-140-42s-95 10-140 42v78c50-33 91-44 140-44s90 11 140 44v-78z"/><glyph glyph-name="uni041A" unicode="К" horiz-adv-x="665" d="M176 0H92v700h84V397h159l211 303h96L404 359 663 0h-96L338 317H176V0z"/><glyph glyph-name="uni041B" unicode="Л" horiz-adv-x="746" d="M223 700h431V0h-84v620H303C275 301 249-9 66-10 47-10 26-7 4 1v80c14-5 26-7 48-7 127 0 147 317 171 626z"/><glyph glyph-name="uni041C" unicode="М" horiz-adv-x="906" d="M742 700h72V0h-84v541L479 165h-52L176 541V0H92v700h72l289-432z"/><glyph glyph-name="uni041D" unicode="Н" horiz-adv-x="767" d="M591 700h84V0h-84v311H176V0H92v700h84V391h415v309z"/><glyph glyph-name="uni041E" unicode="О" horiz-adv-x="822" d="M45 350c0 181 121 362 366 362s366-181 366-362S656-12 411-12 45 169 45 350zm647 0c0 144-91 282-281 282S130 494 130 350 221 68 411 68s281 138 281 282z"/><glyph glyph-name="uni041F" unicode="П" horiz-adv-x="755" d="M176 0H92v700h571V0h-84v620H176V0z"/><glyph glyph-name="uni0420" unicode="Р" horiz-adv-x="661" d="M92 700h239c162 0 297-51 297-226S493 248 331 248H176V0H92v700zm451-226c0 119-93 146-208 146H176V328h159c114 0 208 28 208 146z"/><glyph glyph-name="uni0421" unicode="С" horiz-adv-x="658" d="M45 345c1 243 186 367 368 367 70 0 138-16 197-47v-84c-51 34-117 51-183 51-145 0-296-87-297-287-1-187 155-277 300-277 72 0 137 17 185 51V35C557 5 487-12 412-12 236-12 44 112 45 345z"/><glyph glyph-name="uni0422" unicode="Т" horiz-adv-x="604" d="M14 700h576v-80H344V0h-84v620H14v80z"/><glyph glyph-name="uni0423" unicode="У" horiz-adv-x="632" d="M379 159C314 22 236-12 159-12c-31 0-65 5-95 14v79c23-7 52-13 80-13 51 0 98 10 141 92l12 26L8 700h93l241-435 202 435h90z"/><glyph glyph-name="uni0424" unicode="Ф" horiz-adv-x="864" d="M474-37h-84v91C172 60 29 165 29 350s143 290 361 296v91h84v-91c218-6 361-111 361-296S692 60 474 54v-91zM114 350c0-131 92-213 276-220v440c-184-7-276-89-276-220zm360 220V130c184 7 276 89 276 220s-92 213-276 220z"/><glyph glyph-name="uni0425" unicode="Х" horiz-adv-x="645" d="M102 0H2l271 360L17 700h100l206-273 205 273h100L373 360 643 0H543L323 293z"/><glyph glyph-name="uni0427" unicode="Ч" horiz-adv-x="685" d="M593 0h-84v274c-71-24-140-35-205-35-160 2-258 80-258 238v223h84V473c0-112 77-153 194-154 60 0 123 11 185 35v346h84V0z"/><glyph glyph-name="uni0426" unicode="Ц" horiz-adv-x="784" d="M752-165h-80l1 165H92v700h84V80h405v620h84V80h87v-245z"/><glyph glyph-name="uni0428" unicode="Ш" horiz-adv-x="1060" d="M968 0H92v700h84V80h312v620h84V80h312v620h84V0z"/><glyph glyph-name="uni0429" unicode="Щ" horiz-adv-x="1087" d="M1055-165h-80l1 165H92v700h84V80h312v620h84V80h312v620h84V80h87v-245z"/><glyph glyph-name="uni042F" unicode="Я" horiz-adv-x="685" d="M130 0H28l207 267C135 291 58 358 58 478c0 155 130 222 271 222h264V0h-84v256H328zm15 478c0-100 81-142 181-142h183v284H326c-100 0-181-42-181-142z"/><glyph glyph-name="uni042C" unicode="Ь" horiz-adv-x="661" d="M331 0H92v700h84V451h155c162 0 297-50 297-225S493 0 331 0zM176 371V80h159c115 0 208 27 208 146 0 118-94 145-208 145H176z"/><glyph glyph-name="uni042A" unicode="Ъ" horiz-adv-x="762" d="M432 0H193v620H15v80h262V451h155c162 0 297-50 297-225S594 0 432 0zM277 371V80h159c115 0 208 27 208 146 0 118-94 145-208 145H277z"/><glyph glyph-name="uni042B" unicode="Ы" horiz-adv-x="881" d="M331 0H92v700h84V451h155c162 0 297-50 297-225S493 0 331 0zM176 371V80h159c115 0 208 27 208 146 0 118-94 145-208 145H176zM789 0h-84v700h84V0z"/><glyph glyph-name="uni042D" unicode="Э" horiz-adv-x="655" d="M45 665c58 31 128 47 199 47 180 0 366-118 366-369C610 96 423-12 242-12 172-12 102 5 45 35v87c52-37 118-54 185-54 140 0 283 67 295 242H160v80h364c-16 169-154 242-292 242-66 0-137-17-187-51v84z"/><glyph glyph-name="uni042E" unicode="Ю" horiz-adv-x="1091" d="M1046 350c0-181-121-362-366-362-227 0-347 155-364 322H176V0H92v700h84V390h140c17 167 137 322 364 322 245 0 366-181 366-362zm-647 0c0-144 91-282 281-282s281 138 281 282-91 282-281 282-281-138-281-282z"/><glyph glyph-name="uni0414.loclBGR" horiz-adv-x="787" d="M106-165H26V80h76l245 620h93L686 80h75v-245h-80V0H106v-165zm288 770L191 80h405z"/><glyph glyph-name="uni041B.loclBGR" horiz-adv-x="684" d="M298 700h87L675 0h-90L341 606 98 0H8z"/><glyph glyph-name="uni0424.loclBGR" horiz-adv-x="906" d="M495-100h-84v95C183 5 45 155 45 350s138 345 366 355v95h84v-95c228-10 366-160 366-355S723 5 495-5v-95zM130 350c0-142 91-264 281-275v550c-190-11-281-133-281-275zm365 275V75c190 11 281 133 281 275s-91 264-281 275z"/><glyph glyph-name="uni0430" unicode="а" horiz-adv-x="550" d="M464 100c0-29 16-37 37-37 12 0 25 3 37 7V5c-19-7-40-11-60-11-39 0-74 16-88 58-48-40-109-64-187-64-85 0-169 45-169 146 0 124 114 162 217 162 42 0 93-6 133-15v17c0 72-49 120-137 120-74 0-133-18-175-36v78c38 13 104 32 183 32 128 0 209-70 209-204V100zm-348 38c0-56 51-81 104-81 61 0 122 25 164 70v88c-34 7-83 14-122 14-70 0-146-21-146-91z"/><glyph glyph-name="uni0431" unicode="б" horiz-adv-x="585" d="M543 226C543 76 443-12 298-12S49 87 49 269c0 161 62 272 148 326 138 85 233 49 303 117v-84c-69-49-146-28-256-92-67-40-94-105-114-166 34 53 102 90 177 90 125 0 236-91 236-234zm-414-2c0-91 66-160 167-160 105 0 167 69 167 160s-62 160-167 160c-100 0-167-79-167-160z"/><glyph glyph-name="uni0432" unicode="в" horiz-adv-x="548" d="M345 0H74v480h263c84 0 148-45 148-130 0-50-28-90-64-106 39-13 79-51 79-111C500 54 449 0 345 0zM154 208V70h180c50 0 86 15 86 68 0 57-43 70-83 70H154zm0 202V277h175c42 0 75 16 75 65 0 54-41 68-75 68H154z"/><glyph glyph-name="uni0433" unicode="г" horiz-adv-x="442" d="M154 0H74v480h351v-74H154V0z"/><glyph glyph-name="uni0434" unicode="д" horiz-adv-x="633" d="M104-130H26V72h64c60 106 84 229 82 408h358V72h70v-202h-78V0H104v-130zm145 538c-4-144-28-244-72-336h273v336H249z"/><glyph glyph-name="uni0435" unicode="е" horiz-adv-x="546" d="M41 240c0 168 125 252 239 252 185 0 253-151 223-287H121C131 104 222 62 319 62c59 0 117 16 158 39V23C433 0 370-12 307-12 165-12 41 69 41 240zm391 35c7 51-25 143-147 143-82 0-158-49-164-143h311z"/><glyph glyph-name="uni0451" unicode="ё" horiz-adv-x="546" d="M436 617c0-30-25-55-55-55s-55 25-55 55c0 29 25 55 55 55s55-26 55-55zm-202 0c0-30-25-55-55-55s-55 25-55 55c0 29 25 55 55 55s55-26 55-55zM41 240c0 168 125 252 239 252 185 0 253-151 223-287H121C131 104 222 62 319 62c59 0 117 16 158 39V23C433 0 370-12 307-12 165-12 41 69 41 240zm391 35c7 51-25 143-147 143-82 0-158-49-164-143h311z"/><glyph glyph-name="uni0436" unicode="ж" horiz-adv-x="754" d="M747 0h-90L494 201h-77V0h-80v201h-77L97 0H7l191 241L29 480h89l146-205h73v205h80V275h73l146 205h89L556 241z"/><glyph glyph-name="uni0437" unicode="з" horiz-adv-x="477" d="M433 129c0-91-83-141-216-141C149-12 85 3 40 25v76c41-22 109-39 167-39 76 0 146 14 146 76 0 59-58 69-106 69H142v74h105c54 0 96 16 96 62 0 53-57 76-132 76-57 0-119-16-163-38v75c48 22 108 37 172 37 134 0 203-55 203-139 0-58-35-96-89-108 54-14 99-55 99-117z"/><glyph glyph-name="uni0438" unicode="и" horiz-adv-x="590" d="M142 0H74v480h80V129l294 351h68V0h-80v351z"/><glyph glyph-name="uni0439" unicode="й" horiz-adv-x="590" d="M435 596c-45-32-92-42-140-42s-95 10-140 42v72c50-33 91-44 140-44s90 11 140 44v-72zM142 0H74v480h80V129l294 351h68V0h-80v351z"/><glyph glyph-name="uni043A" unicode="к" horiz-adv-x="523" d="M154 0H74v480h80V280h97l152 200h93L314 241 518 0h-94L248 206h-94V0z"/><glyph glyph-name="uni043B" unicode="л" horiz-adv-x="593" d="M244 406C228 160 194-8 70-8 52-8 33-5 12 3v63c11-4 22-6 32-6 85 0 113 162 122 420h353V0h-80v406H244z"/><glyph glyph-name="uni043C" unicode="м" horiz-adv-x="672" d="M150 0H74v480h87l175-266 175 266h87V0h-76v362L366 125h-60L150 362V0z"/><glyph glyph-name="uni043D" unicode="н" horiz-adv-x="586" d="M154 0H74v480h80V277h278v203h80V0h-80v203H154V0z"/><glyph glyph-name="uni043E" unicode="о" horiz-adv-x="594" d="M41 240c0 164 126 252 256 252 131 0 256-88 256-252S428-12 297-12C167-12 41 76 41 240zm432 0c0 111-78 176-176 176s-176-65-176-176S199 64 297 64s176 65 176 176z"/><glyph glyph-name="uni043F" unicode="п" horiz-adv-x="586" d="M154 0H74v480h438V0h-80v406H154V0z"/><glyph glyph-name="uni0440" unicode="р" horiz-adv-x="621" d="M146 400c43 49 102 92 194 92 137 0 240-108 240-252S477-12 340-12c-92 0-151 43-186 84v-292H74v700h72v-80zm354-160c0 110-76 178-169 178-86 0-150-56-177-118V180c27-62 91-118 177-118 93 0 169 68 169 178z"/><glyph glyph-name="uni0441" unicode="с" horiz-adv-x="497" d="M41 238c0 175 135 254 260 254 54 0 107-12 148-39v-78c-36 28-87 43-138 43-93 0-190-52-190-178 0-123 94-178 188-178 52 0 105 15 145 39V21c-45-22-96-33-156-33C172-12 41 67 41 238z"/><glyph glyph-name="uni0442" unicode="т" horiz-adv-x="467" d="M274 0h-80v406H17v74h433v-74H274V0z"/><glyph glyph-name="uni0443" unicode="у" horiz-adv-x="538" d="M276 91l162 389h85L287-72c-50-116-111-160-181-160-17 0-34 2-52 7v69c14-4 28-6 42-6 54 0 93 39 124 117l18 44L10 480h85z"/><glyph glyph-name="uni0444" unicode="ф" horiz-adv-x="722" d="M401-220h-80v208C162-8 40 88 40 240s122 248 281 252v208h80V492c159-4 281-100 281-252S560-8 401-12v-208zM120 240c0-110 80-178 201-182v364c-121-4-201-72-201-182zm281 182V58c121 4 201 72 201 182s-80 178-201 182z"/><glyph glyph-name="uni0445" unicode="х" horiz-adv-x="489" d="M375 480h92L291 247 477 0h-92L245 190 104 0H12l187 247L22 480h92l131-177z"/><glyph glyph-name="uni0447" unicode="ч" horiz-adv-x="523" d="M449 0h-80v167c-44-17-83-25-143-25-110 0-185 54-185 172v166h80V320c0-81 49-104 129-104 48 0 82 6 119 21v243h80V0z"/><glyph glyph-name="uni0446" unicode="ц" horiz-adv-x="601" d="M568-130h-78V0H74v480h80V74h263v406h80V74h71v-204z"/><glyph glyph-name="uni0448" unicode="ш" horiz-adv-x="818" d="M744 0H74v480h80V74h215v406h80V74h215v406h80V0z"/><glyph glyph-name="uni0449" unicode="щ" horiz-adv-x="847" d="M814-130h-78V0H74v480h80V74h215v406h80V74h215v406h80V74h70v-204z"/><glyph glyph-name="uni044F" unicode="я" horiz-adv-x="542" d="M122 0H28l139 176C92 198 52 257 52 324c0 84 63 156 180 156h236V0h-80v168H253zm10 324c0-53 40-84 107-84h149v168H239c-67 0-107-31-107-84z"/><glyph glyph-name="uni044C" unicode="ь" horiz-adv-x="517" d="M302 0H74v480h80V312h148c117 0 186-67 186-156S419 0 302 0zM154 240V72h138c70 0 115 27 115 84s-45 84-115 84H154z"/><glyph glyph-name="uni044A" unicode="ъ" horiz-adv-x="592" d="M229 312h148c117 0 186-67 186-156S494 0 377 0H149v410H18v70h211V312zm0-240h138c70 0 115 27 115 84s-45 84-115 84H229V72z"/><glyph glyph-name="uni044B" unicode="ы" horiz-adv-x="735" d="M302 0H74v480h80V312h148c117 0 186-67 186-156S419 0 302 0zM154 240V72h138c70 0 115 27 115 84s-45 84-115 84H154zM661 0h-80v480h80V0z"/><glyph glyph-name="uni044D" unicode="э" horiz-adv-x="504" d="M463 233C463 58 331-12 212-12 143-12 93 2 41 30v75c44-27 100-43 155-43 93 0 177 32 185 141H133v74h248c-12 105-101 141-193 141-48 0-102-16-142-43v74c44 28 96 43 151 43 130 0 266-77 266-259z"/><glyph glyph-name="uni044E" unicode="ю" horiz-adv-x="823" d="M782 240C782 76 657-12 526-12c-120 0-237 76-254 215H154V0H74v480h80V277h118c17 139 134 215 254 215 131 0 256-88 256-252zm-432 0c0-111 78-176 176-176s176 65 176 176-78 176-176 176-176-65-176-176z"/><glyph glyph-name="uni0432.loclBGR" horiz-adv-x="580" d="M492 545c0-56-21-110-99-149 89-20 147-93 147-191 0-119-93-217-234-217C169-12 63 75 63 254v143c0 195 84 315 242 315 116 0 187-77 187-167zm-187 93c-96 0-162-69-162-241v-7l145 26c97 17 124 76 124 124 0 45-36 98-107 98zM144 254c1-135 65-192 162-192s154 59 154 143c0 92-60 157-169 138l-147-26v-63z"/><glyph glyph-name="uni0433.loclBGR" horiz-adv-x="478" d="M430 35C385 6 312-12 244-12 130-12 36 23 36 129c0 187 315 103 315 225 0 49-55 64-112 64-61 0-125-17-175-43v76c50 24 111 41 180 41 95 0 188-39 188-140 0-190-316-110-316-225 0-54 54-65 132-65 60 0 133 18 182 51V35z"/><glyph glyph-name="uni0434.loclBGR" horiz-adv-x="621" d="M41 240c0 144 103 252 240 252 92 0 151-43 194-92v80h72V0c0-165-129-232-262-232-71 0-138 16-195 45v78c57-32 119-49 185-49 102 0 193 39 192 158v74c-35-43-94-86-186-86C144-12 41 96 41 240zm426 60c-27 62-91 118-177 118-93 0-169-68-169-178S197 62 290 62c86 0 150 52 177 108v130z"/><glyph glyph-name="uni0436.loclBGR" horiz-adv-x="754" d="M97 0H7l191 241L29 480h89l146-205h73v425h80V275h73l146 205h89L556 241 747 0h-90L494 201h-77V0h-80v201h-77z"/><glyph glyph-name="uni0438.loclBGR" d="M433 480h80V0h-72v71c-32-42-96-83-173-83C143-12 68 67 68 184v296h80V194c0-90 45-132 129-132 71 0 124 48 156 96v322z"/><glyph glyph-name="uni0439.loclBGR" d="M433 596c-45-32-92-42-140-42s-95 10-140 42v72c50-33 91-44 140-44s90 11 140 44v-72zm0-116h80V0h-72v71c-32-42-96-83-173-83C143-12 68 67 68 184v296h80V194c0-90 45-132 129-132 71 0 124 48 156 96v322z"/><glyph glyph-name="uni043A.loclBGR" horiz-adv-x="523" d="M518 0h-94L248 206h-94V0H74v700h80V280h97l152 200h93L314 241z"/><glyph glyph-name="uni043B.loclBGR" horiz-adv-x="536" d="M522 0h-89L268 390 103 0H14l212 480h84z"/><glyph glyph-name="uni043F.loclBGR" d="M146 409c32 42 96 83 173 83 115 0 200-79 200-196V0h-80v286c0 90-55 132-129 132-71 0-124-48-156-96V0H74v480h72v-71z"/><glyph glyph-name="uni0442.loclBGR" horiz-adv-x="890" d="M154 0H74v480h72v-64c26 28 83 76 164 76 72 0 125-31 154-81 43 44 102 81 175 81 119 0 183-84 183-196V0h-80v298c0 73-42 120-112 120-65 0-113-45-140-79 2-14 3-28 3-43V0h-80v298c0 73-42 120-112 120-71 0-121-53-147-87V0z"/><glyph glyph-name="uni0446.loclBGR" horiz-adv-x="615" d="M513 100c0-29 16-37 37-37h33v-193h-74V-5c-35 5-64 25-73 70-33-40-95-77-168-77C143-12 68 67 68 184v296h80V194c0-90 45-132 129-132 71 0 124 48 156 96v322h80V100z"/><glyph glyph-name="uni0448.loclBGR" horiz-adv-x="890" d="M736 480h80V0h-72v64c-26-28-83-76-164-76-72 0-125 31-154 81-43-44-102-81-175-81C132-12 68 72 68 184v296h80V182c0-73 42-120 112-120 65 0 113 45 140 79-2 14-3 28-3 43v296h80V182c0-73 42-120 112-120 71 0 121 53 147 87v331z"/><glyph glyph-name="uni0449.loclBGR" horiz-adv-x="918" d="M816 100c0-29 16-37 37-37h33v-193h-74V-5c-34 5-62 24-72 65-28-29-83-72-160-72-72 0-125 31-154 81-43-44-102-81-175-81C132-12 68 72 68 184v296h80V182c0-73 42-120 112-120 65 0 113 45 140 79-2 14-3 28-3 43v296h80V182c0-73 42-120 112-120 71 0 121 53 147 87v331h80V100z"/><glyph glyph-name="uni044E.loclBGR" horiz-adv-x="823" d="M782 240C782 76 657-12 526-12c-120 0-237 76-254 215H154V0H74v700h80V277h118c17 139 134 215 254 215 131 0 256-88 256-252zm-432 0c0-111 78-176 176-176s176 65 176 176-78 176-176 176-176-65-176-176z"/><glyph glyph-name="uni0430.ss01" horiz-adv-x="621" d="M475 80c-43-49-102-92-194-92C144-12 41 96 41 240s103 252 240 252c92 0 151-43 194-92v80h72V0h-72v80zM121 240c0-110 76-178 169-178 86 0 150 56 177 118v120c-27 62-91 118-177 118-93 0-169-68-169-178z"/><glyph glyph-name="uni0437.ss01" horiz-adv-x="464" d="M387 326c0-56-21-110-99-149 89-20 147-93 147-189 0-145-117-220-250-220-55 0-113 12-166 47v76c49-36 104-50 155-50 97 0 181 46 181 147 0 90-66 159-169 136l-68-15v74l77 17c94 24 112 75 112 121 0 70-58 97-118 97-54 0-111-15-161-47v75c56 34 111 47 167 47 99 0 192-55 192-167z"/><glyph glyph-name="uni0443.ss01" d="M513 0c-4-173-131-232-250-232-66 0-133 16-174 40v74c39-27 103-40 164-40 90 0 181 33 180 158v61c-34-38-94-73-165-73C143-12 68 67 68 184v296h80V194c0-90 45-132 129-132 71 0 124 48 156 96v322h80V0z"/><glyph glyph-name="zero" unicode="0" horiz-adv-x="703" d="M51 340c0 201 94 352 300 352 207 0 301-151 301-352S558-12 351-12C145-12 51 139 51 340zm516 0c0 170-67 272-216 272-148 0-215-102-215-272S203 68 351 68c149 0 216 102 216 272z"/><glyph glyph-name="one" unicode="1" horiz-adv-x="430" d="M218 680h62V80h127V0H53v80h143v511L53 537v80z"/><glyph glyph-name="two" unicode="2" horiz-adv-x="574" d="M68 626c68 47 143 66 218 66 139 0 232-66 232-182s-97-183-192-239S138 169 136 79l387 1V0H44v40c0 166 122 229 228 291 85 50 162 92 162 180 0 67-57 103-155 103-69 0-141-23-211-72v84z"/><glyph glyph-name="three" unicode="3" d="M510 507c0-70-41-130-99-150 58-18 127-68 127-172C538 53 425-12 289-12 192-12 119 3 52 33v83c69-36 140-50 230-49 100 0 175 33 175 122 0 93-74 122-166 122H187v80l95-1c99 0 147 47 147 110 0 70-57 114-161 114-72 0-138-17-204-52v82c61 31 130 48 215 48 139 0 231-75 231-185z"/><glyph glyph-name="four" unicode="4" horiz-adv-x="645" d="M396 680h91V229h128v-78H487V0h-83v151H25v75zm8-451v338L128 229h276z"/><glyph glyph-name="five" unicode="5" horiz-adv-x="579" d="M94 680h408v-80H173l-12-192c36 10 76 15 116 15 128 0 258-55 258-218C535 67 419-12 271-12 192-12 112 5 53 34v80c58-31 135-48 208-48 111 0 189 47 189 139 0 111-96 142-202 142-60 0-124-13-176-32z"/><glyph glyph-name="six" unicode="6" horiz-adv-x="621" d="M137 359c69 46 135 65 213 65 113 0 233-71 233-213C583 66 472-12 339-12 142-12 52 119 52 329c0 250 134 363 309 363 58 0 116-14 165-39v-80c-51 27-109 39-163 39-114 0-216-65-226-253zm1-84c13-143 84-209 195-209 91 0 165 38 165 141 0 107-81 139-169 139-67 0-136-22-191-71z"/><glyph glyph-name="seven" unicode="7" horiz-adv-x="538" d="M27 680h490v-76L233 0h-90l282 600H27v80z"/><glyph glyph-name="eight" unicode="8" horiz-adv-x="647" d="M73 516c0 86 74 176 248 176 157 0 250-89 253-187 2-62-28-127-93-172 65-32 117-80 117-160 0-94-80-185-271-185C141-12 49 83 49 187c0 62 36 136 116 183-53 32-92 78-92 146zm258-210c-30 8-63 18-95 30-70-34-103-90-103-140 0-80 67-130 196-130 106 0 185 41 185 103 0 88-89 109-183 137zm159 184c0 67-59 124-171 124-102 0-162-43-162-97 0-88 92-109 170-133 25-7 54-14 83-23 54 35 80 83 80 129z"/><glyph glyph-name="nine" unicode="9" horiz-adv-x="620" d="M38 469c0 145 111 223 244 223 197 0 287-131 287-341 0-250-134-363-309-363-58 0-116 14-165 39v80c51-27 109-39 163-39 114 0 216 65 226 253-69-46-135-65-213-65-113 0-233 71-233 213zm250 145c-91 0-165-38-165-141 0-107 81-139 169-139 67 0 136 22 191 71-13 143-84 209-195 209z"/><glyph glyph-name="zero.osf" horiz-adv-x="650" d="M605 260c0-131-94-272-280-272S45 129 45 260s94 272 280 272 280-141 280-272zm-475 0c0-100 67-192 195-192s195 92 195 192-67 192-195 192-195-92-195-192z"/><glyph glyph-name="one.osf" horiz-adv-x="434" d="M220 520h62V80h127V0H55v80h143v351L55 377v80z"/><glyph glyph-name="two.osf" horiz-adv-x="532" d="M482 0H43v50c0 124 117 155 212 197 63 28 138 53 138 118 0 55-57 89-130 89-64 0-126-20-196-61v84c68 39 133 55 203 55 114 0 207-64 207-168 0-109-112-153-193-189-76-34-149-58-149-96l347 1V0z"/><glyph glyph-name="three.osf" horiz-adv-x="543" d="M472 347c0-70-41-130-99-150 58-18 127-68 127-172 0-132-123-197-239-197-92 0-155 15-217 45v83c64-36 125-49 210-49 80 0 165 33 165 122 0 93-74 122-146 122h-94v80l85-1c79-1 127 47 127 110 0 70-58 114-146 114-67 0-128-17-189-52v82c56 31 120 48 200 48 123 0 216-75 216-185z"/><glyph glyph-name="four.osf" horiz-adv-x="594" d="M360 520h91V69h118V-9H451v-151h-83V-9H19v75zm8-451v333L118 69h250z"/><glyph glyph-name="five.osf" horiz-adv-x="535" d="M88 520h378v-80H167l-12-192c36 10 76 15 106 15 108 0 238-55 238-218 0-138-121-217-254-217-74 0-139 17-198 46v80c58-31 120-48 188-48 96 0 179 47 179 139 0 111-96 142-182 142-50 0-114-13-166-32z"/><glyph glyph-name="six.osf" horiz-adv-x="592" d="M136 361c62 45 125 63 193 63 103 0 223-71 223-213C552 66 441-12 318-12 141-12 51 119 51 329c0 250 144 363 299 363 58 0 106-14 155-39v-80c-51 27-99 39-153 39-94 0-204-65-216-251zm1-86c13-143 82-209 175-209 81 0 155 38 155 141 0 107-81 139-159 139-58 0-118-22-171-71z"/><glyph glyph-name="seven.osf" horiz-adv-x="494" d="M20 520h460v-76L206-160h-90l272 600H20v80z"/><glyph glyph-name="eight.osf" horiz-adv-x="617" d="M73 516c0 86 75 176 233 176 140 0 235-89 238-187 2-62-28-127-93-172 65-32 117-80 117-160 0-94-75-185-256-185C146-12 49 79 49 187c0 62 36 136 116 183-53 32-92 78-92 146zm239-208c-23 8-48 17-76 28-70-34-103-90-103-140 0-84 72-130 181-130 96 0 170 41 170 103 0 75-45 92-172 139zm148 182c0 67-61 124-156 124-86 0-147-43-147-97 0-66 48-97 154-134 21-7 44-14 69-22 54 35 80 83 80 129z"/><glyph glyph-name="nine.osf" horiz-adv-x="579" d="M33 309c0 145 111 223 234 223 177 0 267-131 267-341 0-250-144-363-299-363-58 0-106 14-155 39v80c51-27 99-39 153-39 94 0 204 65 216 251-62-45-125-63-193-63-103 0-223 71-223 213zm240 145c-81 0-155-38-155-141 0-107 81-139 159-139 58 0 118 22 171 71-13 143-82 209-175 209z"/><glyph glyph-name="zero.sinf" horiz-adv-x="436" d="M401 104c0-119-56-212-183-212S35-15 35 104s56 212 183 212 183-93 183-212zm-296 0c0-94 34-146 113-146s113 52 113 146-34 146-113 146-113-52-113-146z"/><glyph glyph-name="one.sinf" horiz-adv-x="280" d="M138 308h52V-34h70v-66H35v66h86v269l-82-31v66z"/><glyph glyph-name="two.sinf" horiz-adv-x="362" d="M45 275c41 29 89 41 136 41 87 0 144-41 144-115 0-69-58-112-113-145-53-31-103-56-105-91l220 1v-66H31v32c0 99 73 137 135 173 47 28 89 50 89 97 0 34-27 49-80 49-42 0-87-15-130-46v70z"/><glyph glyph-name="three.sinf" horiz-adv-x="366" d="M317 203c0-42-24-75-48-88 25-12 64-41 64-102 0-82-73-121-156-121-55 0-99 9-142 28v68c44-24 86-31 136-31 53 0 95 12 95 60s-37 60-85 60h-65v66h57c50 0 77 19 77 54 0 37-30 54-86 54-40 0-82-10-122-33v68c37 19 81 30 131 30 85 0 144-43 144-113z"/><glyph glyph-name="four.sinf" horiz-adv-x="402" d="M234 308h75V49h70v-65h-70v-84h-68v84H21v63zm7-259v166L106 49h135z"/><glyph glyph-name="five.sinf" horiz-adv-x="362" d="M60 308h252v-66H126l-5-83c16 4 34 6 53 6 76 0 158-33 158-137 0-89-76-136-166-136-47 0-95 10-131 28v66c34-19 80-29 122-29 60 0 104 20 104 71 0 62-54 74-112 74-35 0-73-8-102-19z"/><glyph glyph-name="six.sinf" horiz-adv-x="391" d="M107 134c40 20 73 25 115 25 67 0 143-44 143-130 0-90-70-137-152-137C89-108 35-28 35 101c0 145 85 215 189 215 37 0 74-9 106-24v-67c-33 18-70 25-104 25-51 0-107-29-119-116zm-1-68c8-79 47-109 102-109 47 0 86 13 86 69 0 57-44 69-90 69-33 0-68-8-98-29z"/><glyph glyph-name="seven.sinf" horiz-adv-x="329" d="M155-100H80l156 342H19v66h292v-64z"/><glyph glyph-name="eight.sinf" horiz-adv-x="403" d="M47 206c0 53 46 110 152 110 92 0 154-54 157-117 1-30-11-68-47-97 33-19 61-49 61-95 0-58-48-115-166-115C90-108 33-49 33 14c0 31 17 74 62 105-27 20-48 48-48 87zM208 73c-16 5-35 10-54 18-37-20-51-49-51-69 0-43 39-66 103-66 48 0 94 15 94 48 0 44-44 54-92 69zm78 113c0 38-33 66-88 66-47 0-81-18-81-45 0-45 45-55 88-69 13-4 29-7 46-13 26 21 35 45 35 61z"/><glyph glyph-name="nine.sinf" horiz-adv-x="391" d="M26 179c0 90 70 137 152 137 124 0 178-80 178-209 0-145-85-215-190-215-36 0-74 9-106 24v67c34-18 71-25 105-25 51 0 107 29 119 116-40-20-73-25-115-25-67 0-143 44-143 130zm157 72c-47 0-87-13-87-69 0-57 44-69 91-69 33 0 68 8 98 29-8 79-47 109-102 109z"/><glyph glyph-name="zero.sups" horiz-adv-x="436" d="M401 580c0-119-56-212-183-212S35 461 35 580s56 212 183 212 183-93 183-212zm-296 0c0-94 34-146 113-146s113 52 113 146-34 146-113 146-113-52-113-146z"/><glyph glyph-name="one.sups" horiz-adv-x="280" d="M138 780h52V438h70v-66H35v66h86v269l-82-31v66z"/><glyph glyph-name="two.sups" horiz-adv-x="362" d="M45 751c41 29 89 41 136 41 87 0 144-41 144-115 0-69-58-112-113-145-53-31-103-56-105-91l220 1v-66H31v32c0 99 73 137 135 173 47 28 89 50 89 97 0 34-27 49-80 49-42 0-87-15-130-46v70z"/><glyph glyph-name="three.sups" horiz-adv-x="366" d="M317 679c0-42-24-75-48-88 25-12 64-41 64-102 0-82-73-121-156-121-55 0-99 9-142 28v68c44-24 86-31 136-31 53 0 95 12 95 60s-37 60-85 60h-65v66h57c50 0 77 19 77 54 0 37-30 54-86 54-40 0-82-10-122-33v68c37 19 81 30 131 30 85 0 144-43 144-113z"/><glyph glyph-name="four.sups" horiz-adv-x="402" d="M234 780h75V521h70v-65h-70v-84h-68v84H21v63zm7-259v166L106 521h135z"/><glyph glyph-name="five.sups" horiz-adv-x="362" d="M60 780h252v-66H126l-5-83c16 4 34 6 53 6 76 0 158-33 158-137 0-89-76-136-166-136-47 0-95 10-131 28v66c34-19 80-29 122-29 60 0 104 20 104 71 0 62-54 74-112 74-35 0-73-8-102-19z"/><glyph glyph-name="six.sups" horiz-adv-x="391" d="M107 610c40 20 73 25 115 25 67 0 143-44 143-130 0-90-70-137-152-137-124 0-178 80-178 209 0 145 85 215 189 215 37 0 74-9 106-24v-67c-33 18-70 25-104 25-51 0-107-29-119-116zm-1-68c8-79 47-109 102-109 47 0 86 13 86 69 0 57-44 69-90 69-33 0-68-8-98-29z"/><glyph glyph-name="seven.sups" horiz-adv-x="329" d="M155 372H80l156 342H19v66h292v-64z"/><glyph glyph-name="eight.sups" horiz-adv-x="403" d="M47 682c0 53 46 110 152 110 92 0 154-54 157-117 1-30-11-68-47-97 33-19 61-49 61-95 0-58-48-115-166-115-114 0-171 59-171 122 0 31 17 74 62 105-27 20-48 48-48 87zm161-133c-16 5-35 10-54 18-37-20-51-49-51-69 0-43 39-66 103-66 48 0 94 15 94 48 0 44-44 54-92 69zm78 113c0 38-33 66-88 66-47 0-81-18-81-45 0-45 45-55 88-69 13-4 29-7 46-13 26 21 35 45 35 61z"/><glyph glyph-name="nine.sups" horiz-adv-x="391" d="M26 655c0 90 70 137 152 137 124 0 178-80 178-209 0-145-85-215-190-215-36 0-74 9-106 24v67c34-18 71-25 105-25 51 0 107 29 119 116-40-20-73-25-115-25-67 0-143 44-143 130zm157 72c-47 0-87-13-87-69 0-57 44-69 91-69 33 0 68 8 98 29-8 79-47 109-102 109z"/><glyph glyph-name="zero.tf" horiz-adv-x="630" d="M590 340c0-201-94-352-275-352S40 139 40 340s94 352 275 352 275-151 275-352zm-465 0c0-170 67-272 190-272s190 102 190 272-67 272-190 272-190-102-190-272z"/><glyph glyph-name="one.tf" horiz-adv-x="630" d="M315 680h62V80h207V0H69v80h224v511l-191-71v80z"/><glyph glyph-name="two.tf" horiz-adv-x="630" d="M80 626c72 47 147 66 228 66 149 0 242-66 242-182s-87-183-192-239c-97-52-198-102-200-192l407 1V0H66v40c0 166 129 234 238 291 95 50 162 92 162 180 0 67-57 103-165 103-75 0-147-23-221-72v84z"/><glyph glyph-name="three.tf" horiz-adv-x="630" d="M542 507c0-70-41-130-99-150 58-18 127-68 127-172C570 53 457-12 311-12 214-12 131 7 64 37v83c69-36 150-54 240-53 110 1 185 33 185 122 0 93-74 122-176 122H199v80l105-1c109-1 157 47 157 110 0 70-57 114-171 114-72 0-146-20-214-56v82c63 32 140 52 225 52 149 0 241-75 241-185z"/><glyph glyph-name="four.tf" horiz-adv-x="630" d="M393 680h91V229h118v-78H484V0h-83v151H22v75zm8-451v338L125 229h276z"/><glyph glyph-name="five.tf" horiz-adv-x="630" d="M110 680h428v-80H189l-12-192c36 10 76 15 126 15 138 0 268-55 268-218C571 67 455-12 297-12 208-12 128 5 69 34v80c58-31 135-48 218-48 121 0 199 47 199 139 0 111-96 142-212 142-70 0-134-13-186-32z"/><glyph glyph-name="six.tf" horiz-adv-x="630" d="M141 359c69 46 135 65 213 65 113 0 233-71 233-213C587 66 476-12 343-12 146-12 56 119 56 329c0 250 134 363 309 363 58 0 116-14 165-39v-80c-51 27-109 39-163 39-114 0-216-65-226-253zm1-84c13-143 84-209 195-209 91 0 165 38 165 141 0 107-81 139-169 139-67 0-136-22-191-71z"/><glyph glyph-name="seven.tf" horiz-adv-x="630" d="M58 680h520v-76L284 0h-90l292 600H58v80z"/><glyph glyph-name="eight.tf" horiz-adv-x="630" d="M64 516c0 86 74 176 248 176 157 0 250-89 253-187 2-62-28-127-93-172 65-32 117-80 117-160 0-94-80-185-271-185C132-12 40 83 40 187c0 62 36 136 116 183-53 32-92 78-92 146zm258-210c-30 8-63 18-95 30-70-34-103-90-103-140 0-80 67-130 196-130 106 0 185 41 185 103 0 88-89 109-183 137zm159 184c0 67-59 124-171 124-102 0-162-43-162-97 0-88 92-109 170-133 25-7 54-14 83-23 54 35 80 83 80 129z"/><glyph glyph-name="nine.tf" horiz-adv-x="630" d="M43 469c0 145 111 223 244 223 197 0 287-131 287-341 0-250-134-363-309-363-58 0-116 14-165 39v80c51-27 109-39 163-39 114 0 216 65 226 253-69-46-135-65-213-65-113 0-233 71-233 213zm250 145c-91 0-165-38-165-141 0-107 81-139 169-139 67 0 136 22 191 71-13 143-84 209-195 209z"/><glyph glyph-name="zero.tosf" horiz-adv-x="630" d="M595 260c0-131-94-272-280-272S35 129 35 260s94 272 280 272 280-141 280-272zm-475 0c0-100 67-192 195-192s195 92 195 192-67 192-195 192-195-92-195-192z"/><glyph glyph-name="one.tosf" horiz-adv-x="630" d="M314 520h62V80h207V0H68v80h224v351l-191-71v80z"/><glyph glyph-name="two.tosf" horiz-adv-x="630" d="M556 0H67v50c0 134 142 170 242 197 103 28 158 51 158 114 0 57-57 93-160 93-64 0-146-23-216-72v84c68 47 153 66 223 66 144 0 237-66 237-172 0-107-92-149-213-185-80-24-179-48-179-96l397 1V0z"/><glyph glyph-name="three.tosf" horiz-adv-x="630" d="M536 347c0-70-41-130-99-150 58-18 127-68 127-172 0-132-113-197-254-197-102 0-175 15-242 45v83c69-36 140-50 235-49 105 1 180 33 180 122 0 93-74 122-171 122H203v80l100-1c104-1 152 47 152 110 0 70-57 114-166 114-77 0-143-17-209-52v82c61 31 130 48 220 48 144 0 236-75 236-185z"/><glyph glyph-name="four.tosf" horiz-adv-x="630" d="M388 520h91V69h128V-9H479v-151h-83V-9H17v75zm8-451v338L120 69h276z"/><glyph glyph-name="five.tosf" horiz-adv-x="630" d="M115 520h418v-80H194l-12-192c36 10 76 15 126 15 128 0 258-55 258-218 0-138-116-217-264-217-89 0-169 17-228 46v80c58-31 135-48 218-48 111 0 189 47 189 139 0 111-96 142-202 142-70 0-134-13-186-32z"/><glyph glyph-name="six.tosf" horiz-adv-x="630" d="M141 359c69 46 135 65 213 65 113 0 233-71 233-213C587 66 476-12 343-12 146-12 56 119 56 329c0 250 134 363 309 363 58 0 116-14 165-39v-80c-51 27-109 39-163 39-114 0-216-65-226-253zm1-84c13-143 84-209 195-209 91 0 165 38 165 141 0 107-81 139-169 139-67 0-136-22-191-71z"/><glyph glyph-name="seven.tosf" horiz-adv-x="630" d="M57 520h520v-76L283-160h-90l292 600H57v80z"/><glyph glyph-name="eight.tosf" horiz-adv-x="630" d="M65 516c0 86 74 176 248 176 157 0 250-89 253-187 2-62-28-127-93-172 65-32 117-80 117-160 0-94-80-185-271-185C133-12 41 83 41 187c0 62 36 136 116 183-53 32-92 78-92 146zm258-210c-30 8-63 18-95 30-70-34-103-90-103-140 0-80 67-130 196-130 106 0 185 41 185 103 0 88-89 109-183 137zm159 184c0 67-59 124-171 124-102 0-162-43-162-97 0-88 92-109 170-133 25-7 54-14 83-23 54 35 80 83 80 129z"/><glyph glyph-name="nine.tosf" horiz-adv-x="630" d="M43 309c0 145 111 223 244 223 197 0 287-131 287-341 0-250-134-363-309-363-58 0-116 14-165 39v80c51-27 109-39 163-39 114 0 216 65 226 253-69-46-135-65-213-65-113 0-233 71-233 213zm250 145c-91 0-165-38-165-141 0-107 81-139 169-139 67 0 136 22 191 71-13 143-84 209-195 209z"/><glyph glyph-name="fraction" unicode="⁄" horiz-adv-x="171" d="M-126-13h-35l458 725h35z"/><glyph glyph-name="onehalf" unicode="½" horiz-adv-x="882" d="M222-13h-35l458 725h35zm337 388c41 29 89 41 136 41 87 0 144-41 144-115 0-69-58-112-113-145-53-31-103-56-105-91l220 1V0H545v32c0 99 73 137 135 173 47 28 89 50 89 97 0 34-27 49-80 49-42 0-87-15-130-46v70zM152 680h52V338h70v-66H49v66h86v269l-82-31v66z"/><glyph glyph-name="onequarter" unicode="¼" horiz-adv-x="922" d="M742 408h75V149h70V84h-70V0h-68v84H529v63zm7-259v166L614 149h135zM226-13h-35l458 725h35zm-70 693h52V338h70v-66H53v66h86v269l-82-31v66z"/><glyph glyph-name="threequarters" unicode="¾" horiz-adv-x="978" d="M292-13h-35l458 725h35zm506 421h75V149h70V84h-70V0h-68v84H585v63zm7-259v166L670 149h135zM332 579c0-42-24-75-48-88 25-12 64-41 64-102 0-82-73-121-156-121-55 0-99 9-142 28v68c44-24 86-31 136-31 53 0 95 12 95 60s-37 60-85 60h-65v66h57c50 0 77 19 77 54 0 37-30 54-86 54-40 0-82-10-122-33v68c37 19 81 30 131 30 85 0 144-43 144-113z"/><glyph glyph-name="oneeighth" unicode="⅛" horiz-adv-x="910" d="M551 306c0 53 46 110 152 110 92 0 154-54 157-117 1-30-11-68-47-97 33-19 61-49 61-95C874 49 826-8 708-8 594-8 537 51 537 114c0 31 17 74 62 105-27 20-48 48-48 87zm161-133c-16 5-35 10-54 18-37-20-51-49-51-69 0-43 39-66 103-66 48 0 94 15 94 48 0 44-44 54-92 69zm78 113c0 38-33 66-88 66-47 0-81-18-81-45 0-45 45-55 88-69 13-4 29-7 46-13 26 21 35 45 35 61zM214-13h-35l458 725h35zm-60 693h52V338h70v-66H51v66h86v269l-82-31v66z"/><glyph glyph-name="threeeighths" unicode="⅜" horiz-adv-x="947" d="M588 306c0 53 46 110 152 110 92 0 154-54 157-117 1-30-11-68-47-97 33-19 61-49 61-95C911 49 863-8 745-8 631-8 574 51 574 114c0 31 17 74 62 105-27 20-48 48-48 87zm161-133c-16 5-35 10-54 18-37-20-51-49-51-69 0-43 39-66 103-66 48 0 94 15 94 48 0 44-44 54-92 69zm78 113c0 38-33 66-88 66-47 0-81-18-81-45 0-45 45-55 88-69 13-4 29-7 46-13 26 21 35 45 35 61zM261-13h-35l458 725h35zm69 592c0-42-24-75-48-88 25-12 64-41 64-102 0-82-73-121-156-121-55 0-99 9-142 28v68c44-24 86-31 136-31 53 0 95 12 95 60s-37 60-85 60h-65v66h57c50 0 77 19 77 54 0 37-30 54-86 54-40 0-82-10-122-33v68c37 19 81 30 131 30 85 0 144-43 144-113z"/><glyph glyph-name="fiveeighths" unicode="⅝" horiz-adv-x="937" d="M578 306c0 53 46 110 152 110 92 0 154-54 157-117 1-30-11-68-47-97 33-19 61-49 61-95C901 49 853-8 735-8 621-8 564 51 564 114c0 31 17 74 62 105-27 20-48 48-48 87zm161-133c-16 5-35 10-54 18-37-20-51-49-51-69 0-43 39-66 103-66 48 0 94 15 94 48 0 44-44 54-92 69zm78 113c0 38-33 66-88 66-47 0-81-18-81-45 0-45 45-55 88-69 13-4 29-7 46-13 26 21 35 45 35 61zM251-13h-35l458 725h35zM71 680h252v-66H137l-5-83c16 4 34 6 53 6 76 0 158-33 158-137 0-89-76-136-166-136-47 0-95 10-131 28v66c34-19 80-29 122-29 60 0 104 20 104 71 0 62-54 74-112 74-35 0-73-8-102-19z"/><glyph glyph-name="seveneighths" unicode="⅞" horiz-adv-x="849" d="M158-13h-35l458 725h35zm332 319c0 53 46 110 152 110 92 0 154-54 157-117 1-30-11-68-47-97 33-19 61-49 61-95C813 49 765-8 647-8 533-8 476 51 476 114c0 31 17 74 62 105-27 20-48 48-48 87zm161-133c-16 5-35 10-54 18-37-20-51-49-51-69 0-43 39-66 103-66 48 0 94 15 94 48 0 44-44 54-92 69zm78 113c0 38-33 66-88 66-47 0-81-18-81-45 0-45 45-55 88-69 13-4 29-7 46-13 26 21 35 45 35 61zm-557-14H97l156 342H36v66h292v-64z"/><glyph glyph-name="zero.dnom" horiz-adv-x="436" d="M401 204C401 85 345-8 218-8S35 85 35 204s56 212 183 212 183-93 183-212zm-296 0c0-94 34-146 113-146s113 52 113 146-34 146-113 146-113-52-113-146z"/><glyph glyph-name="one.dnom" horiz-adv-x="280" d="M138 408h52V66h70V0H35v66h86v269l-82-31v66z"/><glyph glyph-name="two.dnom" horiz-adv-x="362" d="M45 375c41 29 89 41 136 41 87 0 144-41 144-115 0-69-58-112-113-145-53-31-103-56-105-91l220 1V0H31v32c0 99 73 137 135 173 47 28 89 50 89 97 0 34-27 49-80 49-42 0-87-15-130-46v70z"/><glyph glyph-name="three.dnom" horiz-adv-x="366" d="M317 303c0-42-24-75-48-88 25-12 64-41 64-102C333 31 260-8 177-8 122-8 78 1 35 20v68c44-24 86-31 136-31 53 0 95 12 95 60s-37 60-85 60h-65v66h57c50 0 77 19 77 54 0 37-30 54-86 54-40 0-82-10-122-33v68c37 19 81 30 131 30 85 0 144-43 144-113z"/><glyph glyph-name="four.dnom" horiz-adv-x="402" d="M234 408h75V149h70V84h-70V0h-68v84H21v63zm7-259v166L106 149h135z"/><glyph glyph-name="five.dnom" horiz-adv-x="362" d="M60 408h252v-66H126l-5-83c16 4 34 6 53 6 76 0 158-33 158-137C332 39 256-8 166-8 119-8 71 2 35 20v66c34-19 80-29 122-29 60 0 104 20 104 71 0 62-54 74-112 74-35 0-73-8-102-19z"/><glyph glyph-name="six.dnom" horiz-adv-x="391" d="M107 234c40 20 73 25 115 25 67 0 143-44 143-130C365 39 295-8 213-8 89-8 35 72 35 201c0 145 85 215 189 215 37 0 74-9 106-24v-67c-33 18-70 25-104 25-51 0-107-29-119-116zm-1-68c8-79 47-109 102-109 47 0 86 13 86 69 0 57-44 69-90 69-33 0-68-8-98-29z"/><glyph glyph-name="seven.dnom" horiz-adv-x="329" d="M155 0H80l156 342H19v66h292v-64z"/><glyph glyph-name="eight.dnom" horiz-adv-x="403" d="M47 306c0 53 46 110 152 110 92 0 154-54 157-117 1-30-11-68-47-97 33-19 61-49 61-95C370 49 322-8 204-8 90-8 33 51 33 114c0 31 17 74 62 105-27 20-48 48-48 87zm161-133c-16 5-35 10-54 18-37-20-51-49-51-69 0-43 39-66 103-66 48 0 94 15 94 48 0 44-44 54-92 69zm78 113c0 38-33 66-88 66-47 0-81-18-81-45 0-45 45-55 88-69 13-4 29-7 46-13 26 21 35 45 35 61z"/><glyph glyph-name="nine.dnom" horiz-adv-x="391" d="M26 279c0 90 70 137 152 137 124 0 178-80 178-209C356 62 271-8 166-8 130-8 92 1 60 16v67c34-18 71-25 105-25 51 0 107 29 119 116-40-20-73-25-115-25-67 0-143 44-143 130zm157 72c-47 0-87-13-87-69 0-57 44-69 91-69 33 0 68 8 98 29-8 79-47 109-102 109z"/><glyph glyph-name="zero.numr" horiz-adv-x="436" d="M401 480c0-119-56-212-183-212S35 361 35 480s56 212 183 212 183-93 183-212zm-296 0c0-94 34-146 113-146s113 52 113 146-34 146-113 146-113-52-113-146z"/><glyph glyph-name="one.numr" horiz-adv-x="280" d="M138 680h52V338h70v-66H35v66h86v269l-82-31v66z"/><glyph glyph-name="two.numr" horiz-adv-x="362" d="M45 651c41 29 89 41 136 41 87 0 144-41 144-115 0-69-58-112-113-145-53-31-103-56-105-91l220 1v-66H31v32c0 99 73 137 135 173 47 28 89 50 89 97 0 34-27 49-80 49-42 0-87-15-130-46v70z"/><glyph glyph-name="three.numr" horiz-adv-x="366" d="M317 579c0-42-24-75-48-88 25-12 64-41 64-102 0-82-73-121-156-121-55 0-99 9-142 28v68c44-24 86-31 136-31 53 0 95 12 95 60s-37 60-85 60h-65v66h57c50 0 77 19 77 54 0 37-30 54-86 54-40 0-82-10-122-33v68c37 19 81 30 131 30 85 0 144-43 144-113z"/><glyph glyph-name="four.numr" horiz-adv-x="402" d="M234 680h75V421h70v-65h-70v-84h-68v84H21v63zm7-259v166L106 421h135z"/><glyph glyph-name="five.numr" horiz-adv-x="362" d="M60 680h252v-66H126l-5-83c16 4 34 6 53 6 76 0 158-33 158-137 0-89-76-136-166-136-47 0-95 10-131 28v66c34-19 80-29 122-29 60 0 104 20 104 71 0 62-54 74-112 74-35 0-73-8-102-19z"/><glyph glyph-name="six.numr" horiz-adv-x="391" d="M107 510c40 20 73 25 115 25 67 0 143-44 143-130 0-90-70-137-152-137-124 0-178 80-178 209 0 145 85 215 189 215 37 0 74-9 106-24v-67c-33 18-70 25-104 25-51 0-107-29-119-116zm-1-68c8-79 47-109 102-109 47 0 86 13 86 69 0 57-44 69-90 69-33 0-68-8-98-29z"/><glyph glyph-name="seven.numr" horiz-adv-x="329" d="M155 272H80l156 342H19v66h292v-64z"/><glyph glyph-name="eight.numr" horiz-adv-x="403" d="M47 582c0 53 46 110 152 110 92 0 154-54 157-117 1-30-11-68-47-97 33-19 61-49 61-95 0-58-48-115-166-115-114 0-171 59-171 122 0 31 17 74 62 105-27 20-48 48-48 87zm161-133c-16 5-35 10-54 18-37-20-51-49-51-69 0-43 39-66 103-66 48 0 94 15 94 48 0 44-44 54-92 69zm78 113c0 38-33 66-88 66-47 0-81-18-81-45 0-45 45-55 88-69 13-4 29-7 46-13 26 21 35 45 35 61z"/><glyph glyph-name="nine.numr" horiz-adv-x="391" d="M26 555c0 90 70 137 152 137 124 0 178-80 178-209 0-145-85-215-190-215-36 0-74 9-106 24v67c34-18 71-25 105-25 51 0 107 29 119 116-40-20-73-25-115-25-67 0-143 44-143 130zm157 72c-47 0-87-13-87-69 0-57 44-69 91-69 33 0 68 8 98 29-8 79-47 109-102 109z"/><glyph glyph-name="asterisk" unicode="*" horiz-adv-x="445" d="M223 492l-75-120-61 42 87 106-130 32 26 70 124-49-8 127h74l-9-127 125 49 25-70-130-32 87-106-60-42z"/><glyph glyph-name="backslash" unicode="\" horiz-adv-x="423" d="M391-58h-60L33 758h60z"/><glyph glyph-name="periodcentered" unicode="·" horiz-adv-x="233" d="M169 239c0-34-24-51-52-51s-53 17-53 51 25 51 53 51 52-17 52-51z"/><glyph glyph-name="bullet" unicode="•" horiz-adv-x="335" d="M86 350c0 53 38 79 81 79 44 0 82-26 82-79s-38-79-82-79c-43 0-81 26-81 79z"/><glyph glyph-name="colon" unicode=":" horiz-adv-x="232" d="M168 390c0-34-24-51-53-51-27 0-52 17-52 51s25 51 52 51c29 0 53-17 53-51zm0-348c0-34-24-51-53-51C88-9 63 8 63 42c0 33 25 50 52 50 29 0 53-17 53-50z"/><glyph glyph-name="comma" unicode="," horiz-adv-x="224" d="M86-150H21L76 80h85z"/><glyph glyph-name="ellipsis" unicode="…" horiz-adv-x="589" d="M534 42c0-34-24-51-53-51-27 0-52 17-52 51 0 33 25 50 52 50 29 0 53-17 53-50zm-374 0c0-34-24-51-52-51S55 8 55 42c0 33 25 50 53 50s52-17 52-50zm187 0c0-34-24-51-52-51s-53 17-53 51c0 33 25 50 53 50s52-17 52-50z"/><glyph glyph-name="exclam" unicode="!" horiz-adv-x="230" d="M150 203H80l-7 497h84zm16-163c0-33-24-50-51-50S64 7 64 40s24 50 51 50 51-17 51-50z"/><glyph glyph-name="exclamdown" unicode="¡" horiz-adv-x="218" d="M151-218H67l7 497h70zm9 660c0-33-24-50-51-50s-51 17-51 50 24 50 51 50 51-17 51-50z"/><glyph glyph-name="numbersign" unicode="#" horiz-adv-x="653" d="M155 0H75l40 171H37v70h95l47 199H87v70h109l40 171h80l-40-171h182l40 171h80l-40-171h77v-70h-94l-47-199h91v-70H457L417 0h-80l40 171H195zm104 440l-47-199h182l47 199H259z"/><glyph glyph-name="period" unicode="." horiz-adv-x="215" d="M160 42c0-34-24-51-52-51S55 8 55 42c0 33 25 50 53 50s52-17 52-50z"/><glyph glyph-name="question" unicode="?" horiz-adv-x="491" d="M270 208h-80c0 131 181 212 181 327 0 72-61 97-154 97-68 0-131-24-180-53v80c51 30 118 53 193 53 127 0 226-56 226-169 0-142-186-225-186-335zm12-166c0-34-24-51-52-51s-53 17-53 51c0 33 25 50 53 50s52-17 52-50z"/><glyph glyph-name="questiondown" unicode="¿" horiz-adv-x="483" d="M450-176c-51-30-118-53-193-53-127 0-226 56-226 169 0 142 186 225 186 335h80c0-131-181-212-181-327 0-72 61-97 154-97 68 0 131 24 180 53v-80zM310 441c0-33-25-50-53-50s-52 17-52 50c0 34 24 51 52 51s53-17 53-51z"/><glyph glyph-name="quotedbl" unicode="&quot;" horiz-adv-x="318" d="M248 520h-56v180h76zm-130 0H62v180h76z"/><glyph glyph-name="quotesingle" unicode="'" horiz-adv-x="188" d="M118 520H62v180h76z"/><glyph glyph-name="semicolon" unicode=";" horiz-adv-x="282" d="M117-150H52l55 230h85zm74 576c0-34-24-51-53-51-27 0-52 17-52 51s25 51 52 51c29 0 53-17 53-51z"/><glyph glyph-name="slash" unicode="/" horiz-adv-x="423" d="M92-58H32l298 816h60z"/><glyph glyph-name="underscore" unicode="_" horiz-adv-x="454" d="M454-149H0v76h454v-76z"/><glyph glyph-name="braceleft" unicode="{" horiz-adv-x="308" d="M268-40v-70C162-132 109-83 109 5v229c0 63-44 85-80 81v70c35-4 80 17 80 81v229c0 88 53 137 159 115v-70c-58 8-75-22-75-80V460c0-68-25-104-57-110 32-6 57-42 57-110V40c0-58 17-88 75-80z"/><glyph glyph-name="braceright" unicode="}" horiz-adv-x="308" d="M199 5c0-88-53-137-159-115v70c58-8 75 22 75 80v200c0 68 25 104 57 110-32 6-57 42-57 110v200c0 58-17 88-75 80v70c106 22 159-27 159-115V466c0-64 45-85 80-81v-70c-36 4-80-18-80-81V5z"/><glyph glyph-name="bracketleft" unicode="[" horiz-adv-x="285" d="M257-110H70v920h187v-80H154V-30h103v-80z"/><glyph glyph-name="bracketright" unicode="]" horiz-adv-x="285" d="M215-110H28v80h103v760H28v80h187v-920z"/><glyph glyph-name="parenleft" unicode="(" horiz-adv-x="288" d="M189 809h78c-85-127-133-302-133-459s48-332 133-459h-78C101 18 44 189 44 350s57 332 145 459z"/><glyph glyph-name="parenright" unicode=")" horiz-adv-x="288" d="M21 809h78c88-127 145-298 145-459S187 18 99-109H21c85 127 133 302 133 459S106 682 21 809z"/><glyph glyph-name="emdash" unicode="—" horiz-adv-x="762" d="M698 210H64v76h634v-76z"/><glyph glyph-name="endash" unicode="–" horiz-adv-x="574" d="M510 210H64v76h446v-76z"/><glyph glyph-name="hyphen" unicode="-" horiz-adv-x="485" d="M64 286h357v-76H64v76z"/><glyph glyph-name="emdash.case" horiz-adv-x="766" d="M700 312H66v76h634v-76z"/><glyph glyph-name="endash.case" horiz-adv-x="578" d="M512 312H66v76h446v-76z"/><glyph glyph-name="hyphen.case" horiz-adv-x="489" d="M66 388h357v-76H66v76z"/><glyph glyph-name="guillemotleft" unicode="«" horiz-adv-x="492" d="M440 58h-86L231 232v16l123 174h86L312 240zm-187 0h-86L44 232v16l123 174h86L124 240z"/><glyph glyph-name="guillemotright" unicode="»" horiz-adv-x="492" d="M324 58h-85l128 182-128 182h85l124-174v-16zm-187 0H52l128 182L52 422h85l124-174v-16z"/><glyph glyph-name="guilsinglleft" unicode="‹" horiz-adv-x="305" d="M253 58h-86L44 232v16l123 174h86L124 240z"/><glyph glyph-name="guilsinglright" unicode="›" horiz-adv-x="305" d="M137 58H52l128 182L52 422h85l124-174v-16z"/><glyph glyph-name="quotedblbase" unicode="„" horiz-adv-x="364" d="M226-150h-65l55 230h85zm-140 0H21L76 80h85z"/><glyph glyph-name="quotedblleft" unicode="“" horiz-adv-x="361" d="M270 470h-85l75 230h65zm-140 0H45l75 230h65z"/><glyph glyph-name="quotedblright" unicode="”" horiz-adv-x="357" d="M254 470h-65l55 230h85zm-140 0H49l55 230h85z"/><glyph glyph-name="quoteleft" unicode="‘" horiz-adv-x="221" d="M130 470H45l75 230h65z"/><glyph glyph-name="quoteright" unicode="’" horiz-adv-x="217" d="M114 470H49l55 230h85z"/><glyph glyph-name="quotesinglbase" unicode="‚" horiz-adv-x="224" d="M86-150H21L76 80h85z"/><glyph glyph-name="guillemotleft.case" horiz-adv-x="508" d="M447 168h-86L238 342v16l123 174h86L319 350zm-187 0h-86L51 342v16l123 174h86L131 350z"/><glyph glyph-name="guillemotright.case" horiz-adv-x="508" d="M333 168h-85l128 182-128 182h85l124-174v-16zm-187 0H61l128 182L61 532h85l124-174v-16z"/><glyph glyph-name="guilsinglleft.case" horiz-adv-x="321" d="M260 168h-86L51 342v16l123 174h86L131 350z"/><glyph glyph-name="guilsinglright.case" horiz-adv-x="321" d="M146 168H61l128 182L61 532h85l124-174v-16z"/><glyph glyph-name="space" horiz-adv-x="249"/><glyph glyph-name="cent" unicode="¢" horiz-adv-x="509" d="M338 63c44 4 86 18 120 38V21C422 4 383-7 338-11v-109h-70v110C154 3 45 82 45 238c0 158 110 238 223 252v110h70V490c42-4 82-16 115-37v-78c-31 24-72 38-115 42V63zm-70 350c-76-15-143-68-143-173 0-103 66-159 143-174v347z"/><glyph glyph-name="currency" unicode="¤" horiz-adv-x="578" d="M182 186l-64-64-56 56 61 61c-22 29-34 67-34 111s12 82 34 111l-61 61 56 56 64-64c31 18 68 27 107 27s77-9 108-27l64 64 56-56-61-61c21-30 33-67 33-111s-12-81-33-111l61-61-56-56-64 64c-31-18-69-27-108-27s-76 9-107 27zm-13 164c0-73 48-117 120-117s120 44 120 117-48 117-120 117-120-44-120-117z"/><glyph glyph-name="dollar" unicode="$" horiz-adv-x="583" d="M317-130h-70v120C174-3 103 17 48 48v84c74-45 164-64 244-64 97 0 170 25 170 104 0 188-412 89-412 335 0 111 89 170 197 183v120h70V691c68-4 136-22 185-50v-84c-56 36-134 56-206 55-92 0-161-27-161-102 0-177 412-81 412-332C547 46 443-8 317-12v-118z"/><glyph glyph-name="Euro" unicode="€" horiz-adv-x="728" d="M672 35C614 5 544-12 474-12c-148 0-301 88-344 251H40v70h78c-1 10-1 20-1 30 0 11 0 22 1 32H40v70h90c44 164 192 251 345 251 70 0 138-16 197-47v-84c-51 34-117 51-183 51-115 0-228-55-270-171h331v-70H204c-1-10-2-21-2-32 0-10 0-20 1-30h347v-70H219C261 125 377 68 492 68c67 0 132 17 180 51V35z"/><glyph glyph-name="sterling" unicode="£" horiz-adv-x="602" d="M563 0H38v80h37c42 0 68 35 68 83v133H58v78h85v85c0 166 112 233 230 233 52 0 107-14 150-38v-80c-40 25-92 41-140 41-82 0-156-44-156-158v-83h222v-78H227V163c0-41-9-69-28-83h364V0z"/><glyph glyph-name="yen" unicode="¥" horiz-adv-x="672" d="M548 680h92L417 326h130v-70H378v-56h169v-70H378V0h-84v130H127v70h167v56H127v70h128L32 680h92l212-340z"/><glyph glyph-name="cent.tf" horiz-adv-x="630" d="M394 63c45 3 90 17 125 38V21C482 3 441-8 394-11v-109h-70V-9C211 5 106 85 106 238c0 155 107 235 218 251v111h70V491c44-4 86-16 120-38v-78c-32 25-75 39-120 42V63zm-70 349c-74-16-138-70-138-172 0-101 63-156 138-173v345z"/><glyph glyph-name="currency.tf" horiz-adv-x="630" d="M208 186l-84-84-56 56 81 81c-22 29-34 67-34 111s12 82 34 111l-81 81 56 56 84-84c31 18 68 27 107 27s76-9 107-27l84 84 56-56-81-81c22-29 34-67 34-111s-12-82-34-111l81-81-56-56-84 84c-31-18-68-27-107-27s-76 9-107 27zm-13 164c0-73 48-117 120-117s120 44 120 117-48 117-120 117-120-44-120-117z"/><glyph glyph-name="dollar.tf" horiz-adv-x="630" d="M344-130h-70v120C201-3 130 17 75 48v84c74-45 164-64 244-64 97 0 170 20 170 99 0 188-422 99-422 345 0 114 94 170 207 179v119h70V691c65-5 128-23 175-50v-84c-56 36-134 56-206 55-92 0-161-22-161-97 0-177 422-91 422-342C574 41 470-8 344-12v-118z"/><glyph glyph-name="Euro.tf" horiz-adv-x="630" d="M204 239C248 125 366 68 483 68c39 0 77 6 112 17V7c-41-12-86-19-130-19-150 0-305 88-350 251H25v70h78c-1 10-1 20-1 31s0 21 1 31H25v70h90c45 163 200 251 345 251 44 0 89-7 130-19v-78c-35 11-73 17-112 17-113 0-230-57-274-171h291v-70H188c-1-10-1-20-1-31s0-21 1-31h307v-70H204z"/><glyph glyph-name="sterling.tf" horiz-adv-x="630" d="M586 0H41v80h37c42 0 68 35 68 83v133H71v78h75v85c0 166 112 233 250 233 52 0 107-14 150-38v-80c-40 25-92 41-140 41-102 0-176-44-176-158v-83h222v-78H230V163c0-41-9-69-28-83h384V0z"/><glyph glyph-name="yen.tf" horiz-adv-x="630" d="M515 680h93L394 326h132v-70H357v-56h169v-70H357V0h-84v130H106v70h167v56H106v70h130L22 680h93l200-340z"/><glyph glyph-name="approxequal" unicode="≈" d="M523 487c3-72-40-117-107-117-71 0-162 55-231 55-24 0-41-12-39-41H70c-3 74 43 116 106 116 76 0 158-54 232-54 23 0 41 10 39 41h76zm0-152c3-72-40-117-107-117-71 0-162 55-231 55-24 0-41-12-39-41H70c-3 74 43 116 106 116 76 0 158-54 232-54 23 0 41 10 39 41h76z"/><glyph glyph-name="asciitilde" unicode="~" horiz-adv-x="589" d="M523 382c3-72-40-117-107-117-71 0-162 55-231 55-24 0-41-12-39-41H70c-3 74 43 116 106 116 76 0 158-54 232-54 23 0 41 10 39 41h76z"/><glyph glyph-name="divide" unicode="÷" horiz-adv-x="614" d="M547 312H67v76h480v-76zM359 126c0-34-23-51-52-51-28 0-52 17-52 51s24 50 52 50c29 0 52-16 52-50zm0 447c0-34-23-51-52-51-28 0-52 17-52 51s24 50 52 50c29 0 52-16 52-50z"/><glyph glyph-name="emptyset" unicode="∅" horiz-adv-x="812" d="M730 700l-75-87c70-66 114-159 114-263 0-200-163-362-363-362-83 0-160 28-222 75L130 0H81l75 88C86 154 43 247 43 350c0 200 163 362 363 362 83 0 160-28 221-75l54 63h49zm-324-30C229 670 86 526 86 350c0-90 37-172 98-230l415 485c-53 41-120 65-193 65zM212 96c54-41 121-66 194-66 177 0 320 144 320 320 0 90-38 172-98 231z"/><glyph glyph-name="equal" unicode="=" horiz-adv-x="555" d="M489 403H66v76h423v-76zm0-182H66v76h423v-76z"/><glyph glyph-name="greater" unicode="&gt;" horiz-adv-x="503" d="M457 310L81 157v78l295 115L81 465v78l376-153v-80z"/><glyph glyph-name="greaterequal" unicode="≥" horiz-adv-x="524" d="M457 334L81 181v78l295 115L81 489v78l376-153v-80zm0-334H81v76h376V0z"/><glyph glyph-name="infinity" unicode="∞" horiz-adv-x="855" d="M428 420c47 64 102 121 194 121 96 0 176-68 176-183s-80-183-176-183c-92 0-149 57-195 121-47-64-102-121-194-121-96 0-176 68-176 183s80 183 176 183c92 0 149-57 195-121zm-44-63c-40 58-79 108-139 108-59 0-108-32-108-107s49-107 108-107c60 0 100 48 139 106zm334 1c0 75-49 107-108 107-60 0-99-48-139-106 40-58 80-108 139-108s108 32 108 107z"/><glyph glyph-name="integral" unicode="∫" horiz-adv-x="422" d="M171 639c0 118 84 153 158 153 32 0 63-7 84-15v-75c-17 7-41 14-75 14-38 0-87-12-87-80V-79c0-118-84-153-158-153-32 0-63 7-84 15v75c17-7 41-14 66-14 47 0 96 8 96 80v715z"/><glyph glyph-name="less" unicode="&lt;" horiz-adv-x="503" d="M422 235v-78L46 310v80l376 153v-78L127 350z"/><glyph glyph-name="lessequal" unicode="≤" horiz-adv-x="524" d="M443 259v-78L67 334v80l376 153v-78L148 374zm0-259H67v76h376V0z"/><glyph glyph-name="logicalnot" unicode="¬" horiz-adv-x="577" d="M505 271h-80v133H59v76h446V271z"/><glyph glyph-name="minus" unicode="−" horiz-adv-x="514" d="M448 307H66v76h382v-76z"/><glyph glyph-name="multiply" unicode="×" horiz-adv-x="471" d="M236 301L108 173l-51 51 128 128L57 479l51 51 128-127 127 127 51-51-127-127 127-128-51-51z"/><glyph glyph-name="notequal" unicode="≠" horiz-adv-x="555" d="M176 120h-70l60 101H66v76h145l63 106H66v76h253l60 101h70l-60-101h100v-76H344l-63-106h208v-76H236z"/><glyph glyph-name="partialdiff" unicode="∂" horiz-adv-x="592" d="M541 271C541 83 436-12 290-12 149-12 41 80 41 221c0 130 105 223 227 223 92 0 171-43 202-105-1 7-2 14-4 22-43 224-231 264-365 263v76c191 0 440-95 440-429zm-420-50c0-94 66-157 169-157 101 0 152 58 165 141-2 96-74 165-174 165-95 0-160-61-160-149z"/><glyph glyph-name="percent" unicode="%" horiz-adv-x="896" d="M284-60h-80l409 820h80zm77 615c0-101-77-157-163-157-87 0-165 56-165 157s78 157 165 157c86 0 163-56 163-157zm-252 0c0-47 30-87 89-87 57 0 87 40 87 87s-30 87-87 87c-59 0-89-40-89-87zm754-410c0-101-77-157-163-157-87 0-165 56-165 157s78 157 165 157c86 0 163-56 163-157zm-252 0c0-47 30-87 89-87 57 0 87 40 87 87s-30 87-87 87c-59 0-89-40-89-87z"/><glyph glyph-name="perthousand" unicode="‰" horiz-adv-x="1284" d="M284-60h-80l409 820h80zm77 615c0-101-77-157-163-157-87 0-165 56-165 157s78 157 165 157c86 0 163-56 163-157zm-252 0c0-47 30-87 89-87 57 0 87 40 87 87s-30 87-87 87c-59 0-89-40-89-87zm754-410c0-101-77-157-163-157-87 0-165 56-165 157s78 157 165 157c86 0 163-56 163-157zm-252 0c0-47 30-87 89-87 57 0 87 40 87 87s-30 87-87 87c-59 0-89-40-89-87zm640 0c0-101-77-157-163-157-87 0-165 56-165 157s78 157 165 157c86 0 163-56 163-157zm-252 0c0-47 30-87 89-87 57 0 87 40 87 87s-30 87-87 87c-59 0-89-40-89-87z"/><glyph glyph-name="plus" unicode="+" horiz-adv-x="534" d="M305 388h185v-76H305V127h-76v185H44v76h185v185h76V388z"/><glyph glyph-name="plusminus" unicode="±" horiz-adv-x="574" d="M325 607V422h185v-76H325V161h-76v185H64v76h185v185h76zM510 0H64v76h446V0z"/><glyph glyph-name="product" unicode="∏" horiz-adv-x="752" d="M215-220h-84v840H36v80h680v-80h-95v-840h-84v840H215v-840z"/><glyph glyph-name="radical" unicode="√" horiz-adv-x="737" d="M371 0h-75L126 400H26v80h153L335 98l318 682h88z"/><glyph glyph-name="summation" unicode="∑" horiz-adv-x="567" d="M516 0H39v47l264 303L39 653v47h477v-80H176l228-261v-18L176 80h340V0z"/><glyph glyph-name="lozenge" unicode="◊" horiz-adv-x="566" d="M328 0h-89L36 350l203 350h89l202-350zM126 350L283 85l158 265-158 265z"/><glyph glyph-name="bar" unicode="|" horiz-adv-x="224" d="M154-100H70v910h84v-910z"/><glyph glyph-name="brokenbar" unicode="¦" horiz-adv-x="240" d="M162 453H78v357h84V453zm0-553H78v357h84v-357z"/><glyph glyph-name="at" unicode="@" horiz-adv-x="1051" d="M44 240c0 242 177 472 490 472 311 0 469-240 469-433C1003 96 921 8 806 8c-77 0-135 36-156 103-32-54-89-82-151-82-113 0-196 89-196 208 0 120 83 210 196 210 66 0 119-36 142-74v64h78V175c0-60 24-97 88-97 78 0 112 86 112 201 0 164-132 353-385 353-259 0-406-186-406-392 0-252 196-392 435-392 76 0 149 11 220 36v-80c-73-26-145-36-222-36C288-232 44-68 44 240zm597 34c-13 50-60 99-132 99-69 0-126-54-126-135s57-135 126-135c72 0 119 49 132 99v72z"/><glyph glyph-name="ampersand" unicode="&amp;" horiz-adv-x="705" d="M572 120L701 0H600l-76 69c-58-50-139-81-239-81C134-12 49 65 49 168c0 96 84 160 148 197l-2 2c-46 45-83 102-83 165 0 100 94 180 217 180 113 0 188-63 188-154 0-106-115-168-193-208l189-176c30 43 46 96 44 153h84c0-74-23-148-69-207zM328 636c-81 0-134-48-134-105 0-48 36-92 74-129 63 29 167 81 167 150 0 51-39 84-107 84zM133 172c0-67 55-108 157-108 70 0 130 22 175 58L254 313c-54-29-121-74-121-141z"/><glyph glyph-name="paragraph" unicode="¶" horiz-adv-x="639" d="M340-220h-84v500c-139 0-223 78-223 210s84 210 223 210h302v-920h-84v840H340v-840z"/><glyph glyph-name="copyright" unicode="©" horiz-adv-x="848" d="M801 350c0-241-199-362-377-362S47 109 47 350s199 362 377 362 377-121 377-362zM574 182c-41-22-82-34-137-34-92 0-201 59-201 194 0 148 112 210 213 210 48 0 90-12 125-34v-61c-33 21-72 33-114 33-76 0-156-34-156-145 0-103 75-135 150-135 42 0 85 13 120 32v-60zM78 350C78 129 257 18 424 18s346 111 346 332-179 332-346 332S78 571 78 350z"/><glyph glyph-name="registered" unicode="®" horiz-adv-x="848" d="M801 350c0-241-199-362-377-362S47 109 47 350s199 362 377 362 377-121 377-362zm-723 0C78 129 257 18 424 18s346 111 346 332-179 332-346 332S78 571 78 350zm264-196h-60v393h169c63 0 150-23 150-123 0-68-40-101-86-114l110-156h-69L454 301H342V154zm0 335V359h103c37 0 97 0 97 65s-60 65-97 65H342z"/><glyph glyph-name="section" unicode="§" horiz-adv-x="500" d="M437 101C437 1 343-34 239-34c-58 0-131 18-176 47v74c49-33 122-51 172-51 68 0 122 11 122 63 0 49-63 65-138 88-80 24-163 51-163 146 0 48 24 90 80 131-41 23-70 56-70 110 0 99 93 138 188 138 54 0 115-17 160-41v-74c-40 26-107 45-155 45-57 0-112-19-112-66 0-52 66-67 143-90 80-24 163-51 163-146 0-48-24-90-80-131 38-23 64-55 64-108zM244 257c20-6 40-11 60-18 46 19 71 60 71 89 0 52-52 70-110 88-19 6-39 12-59 18-47-18-72-60-72-89 0-52 52-70 110-88z"/><glyph glyph-name="trademark" unicode="™" horiz-adv-x="669" d="M354 446h-48v254h55l89-131 89 131h55V446h-48v186l-83-122h-26l-83 122V446zm-177 0h-48v210H44v44h218v-44h-85V446z"/><glyph glyph-name="degree" unicode="°" horiz-adv-x="394" d="M352 562c0-97-73-152-155-152-81 0-156 55-156 152 0 94 75 150 156 150 82 0 155-56 155-150zm-251 0c0-57 40-93 96-93s95 36 95 93c0 56-39 91-95 91s-96-35-96-91z"/><glyph glyph-name="asciicircum" unicode="^" horiz-adv-x="536" d="M136 380H46l187 320h70l187-320h-90L268 611z"/><glyph glyph-name="dagger" unicode="†" horiz-adv-x="513" d="M299-220h-84v620H32v80h183v220h84V480h182v-80H299v-620z"/><glyph glyph-name="daggerdbl" unicode="‡" horiz-adv-x="572" d="M328-220h-84V74H62v80h182v246H62v80h182v220h84V480h182v-80H328V154h182V74H328v-294z"/><glyph glyph-name="acute" unicode="´" horiz-adv-x="185" d="M112 770H25l91 147h100z"/><glyph glyph-name="breve" unicode="˘" horiz-adv-x="338" d="M309 810c-45-32-92-42-140-42s-95 10-140 42v78c50-33 91-44 140-44s90 11 140 44v-78z"/><glyph glyph-name="caron" unicode="ˇ" horiz-adv-x="328" d="M332 907L200 761h-72L-4 907h91l77-86 77 86h91z"/><glyph glyph-name="cedilla" unicode="¸" horiz-adv-x="215" d="M72 0h70l-15-58c64 3 104-26 105-78 1-65-54-96-133-96-40 0-70 7-98 19v68c23-13 54-22 89-22 49 0 73 13 73 34 0 30-64 35-115 25z"/><glyph glyph-name="circumflex" unicode="ˆ" horiz-adv-x="328" d="M128 917h72l132-146h-91l-77 86-77-86H-4z"/><glyph glyph-name="dieresis" unicode="¨" horiz-adv-x="301" d="M308 837c0-30-25-55-55-55s-55 25-55 55c0 29 25 55 55 55s55-26 55-55zm-202 0c0-30-25-55-55-55s-55 25-55 55c0 29 25 55 55 55s55-26 55-55z"/><glyph glyph-name="dotaccent" unicode="˙" horiz-adv-x="111" d="M-4 827c0 38 28 58 60 58 33 0 60-20 60-58 0-39-27-59-60-59-32 0-60 20-60 59z"/><glyph glyph-name="grave" unicode="`" horiz-adv-x="185" d="M176 770H89L-15 917H85z"/><glyph glyph-name="hungarumlaut" unicode="˝" horiz-adv-x="374" d="M270 780h-85l69 147h90zm-155 0H30l69 147h90z"/><glyph glyph-name="macron" unicode="¯" horiz-adv-x="360" d="M30 857h300v-73H30v73z"/><glyph glyph-name="ogonek" unicode="˛" horiz-adv-x="215" d="M95 0h83c-56-38-91-91-90-127-1-24 14-40 43-41 19 1 42 8 59 21v-64c-22-15-50-22-79-22-66-1-99 39-99 89C12-98 40-43 95 0z"/><glyph glyph-name="ring" unicode="˚" horiz-adv-x="223" d="M227 855c0-69-55-111-115-111C51 744-4 786-4 855c0 67 55 109 116 109 60 0 115-42 115-109zm-170-1c0-35 26-55 55-55s55 20 55 55c0 34-26 55-55 55s-55-21-55-55z"/><glyph glyph-name="tilde" unicode="˜" horiz-adv-x="351" d="M340 869c10-72-34-106-82-106-61 0-118 42-148 42-21 0-32-15-29-37H11C0 840 44 875 91 875c60 0 118-42 149-42 23 0 32 14 30 36h70z"/><glyph glyph-name="uni0326" unicode="̦" horiz-adv-x="145" d="M90-231H20L45-41h80z"/><glyph glyph-name="A" unicode="A" horiz-adv-x="717" d="M98 0H7l305 700h93L709 0h-90l-72 169H170zm249 587L203 247h311L369 587c-4 9-7 17-11 27-4-10-7-18-11-27z"/></font>
</defs>
</svg>
